<?xml version="1.0" encoding="utf-8"?>
<!-- Generator: Adobe Illustrator 16.0.0, SVG Export Plug-In . SVG Version: 6.00 Build 0)  -->
<!DOCTYPE svg PUBLIC "-//W3C//DTD SVG 1.1//EN" "http://www.w3.org/Graphics/SVG/1.1/DTD/svg11.dtd">
<svg version="1.1" id="Layer_1" xmlns="http://www.w3.org/2000/svg" xmlns:xlink="http://www.w3.org/1999/xlink" x="0px" y="0px"
	 width="218.667px" height="186px" viewBox="0 0 218.667 186" enable-background="new 0 0 218.667 186" xml:space="preserve">
<g>
	<path fill="none" d="M95.246,157.642c-0.646,0.043-1.292,0.087-1.938,0.136c-0.044,1.299-0.089,2.598-0.133,3.896
		c0.651-0.049,1.304-0.094,1.955-0.137c0.256-0.018,0.47-0.213,0.477-0.438c0.029-1.026,0.06-2.053,0.089-3.079
		C95.702,157.797,95.501,157.625,95.246,157.642z"/>
	<path fill="none" d="M71.684,160.507c-0.488,0.088-0.978,0.178-1.466,0.269c-0.254,0.047-0.474,0.27-0.493,0.496
		c-0.256,3.051-0.512,6.102-0.768,9.154c-0.021,0.227,0.176,0.372,0.434,0.322c0.499-0.094,0.999-0.184,1.498-0.273
		c0.257-0.048,0.482-0.269,0.501-0.495c0.24-3.048,0.481-6.096,0.722-9.142C72.13,160.613,71.937,160.463,71.684,160.507z"/>
	<path fill="none" d="M83.468,158.741c-0.644,0.08-1.287,0.16-1.932,0.244c-0.077,1.303-0.153,2.606-0.231,3.908
		c0.649-0.084,1.299-0.166,1.949-0.245c0.256-0.032,0.474-0.241,0.487-0.465c0.054-1.029,0.109-2.06,0.166-3.089
		C83.92,158.871,83.723,158.71,83.468,158.741z"/>
	<path fill="#E8E8E8" d="M216.41,163.96c-4.014-17.604-8.197-35.675-12.44-53.708c-0.81-3.438-3.261-6.275-6.729-7.785
		c-1.489-0.649-3.001-1.289-4.49-1.9c-1.446-0.596-2.976-0.926-4.553-0.986c-1.132-0.982-2.463-1.767-3.921-2.295
		c-2.043-0.746-4.137-1.477-6.226-2.169c-1.347-0.447-2.768-0.673-4.223-0.673c-1.402,0-2.804,0.217-4.116,0.633
		c-1.038-0.309-3.845-1.124-7.932-2.137c2.233-4.665,3.863-9.587,4.861-14.7c3.37-3.188,5.418-7.263,6.094-12.164
		c1.039-8.216-1.852-15.051-8.161-19.393c-7.606-22.483-27.576-38.685-51.218-41.424c-2.373-0.276-4.78-0.415-7.153-0.415
		c-31.202,0-57.446,23.406-61.044,54.447c-1.408,12.157,0.734,24.102,6.207,34.854c-0.307,0.061-0.609,0.133-0.908,0.215
		c-1.752,0.483-3.468,0.978-5.095,1.47c-1.343,0.405-2.589,1.011-3.688,1.79c-1.574-0.482-3.254-0.729-5.012-0.729
		c-2.746,0-5.619,0.604-8.791,1.851c-6.373,2.516-14.578,8.093-17.48,20.384l-0.337,1.447c-0.521,2.23-1.04,4.461-1.558,6.69
		c-0.473,2.026-0.77,3.737-0.906,5.22c-0.208,2.232,0.121,4.422,0.941,6.423c-2.129,1.605-3.615,3.835-4.194,6.358
		c-0.891,3.882-1.78,7.768-2.667,11.654c-2.108,9.219,1.511,14.164,4.904,16.677c2.607,1.95,5.855,2.982,9.392,2.981
		c3.192,0,6.524-0.833,10.484-2.617c5.308-2.385,8.681-5.051,11.278-8.914c1.092-1.625,1.764-2.932,2.4-4.292
		c7.033-2.2,38.214-11.32,71.551-11.32c1.762,0,3.531,0.024,5.261,0.076c0.345,0.01,33.978,1.106,56.849,10.661
		c0.84,3.646,3.562,6.648,7.344,8.076c0.425,0.16,0.498,0.205,0.671,0.318c0.44,0.282,0.917,0.566,1.897,0.962
		c0.661,0.269,1.366,0.485,2.102,0.646l5.383,2.281c0.651,0.477,1.354,0.892,2.1,1.239c1.733,0.805,3.451,1.633,5.11,2.461
		c1.812,0.902,3.863,1.382,5.933,1.382c2.429,0,4.781-0.642,6.802-1.858C215.377,173.127,217.449,168.527,216.41,163.96z
		 M209.339,172.693c-1.478,0.89-3.21,1.358-5.008,1.358c-1.532,0-3.046-0.35-4.377-1.015c-1.683-0.839-3.432-1.681-5.194-2.503
		c-0.66-0.306-1.266-0.682-1.809-1.116l-6.104-2.587c-0.63-0.12-1.246-0.293-1.834-0.533c-1.56-0.629-1.146-0.742-2.648-1.309
		c-2.766-1.046-4.723-3.231-5.228-5.842l-0.28-1.449c-21.615-9.65-53.891-11.496-59.811-11.671
		c-1.762-0.052-3.566-0.077-5.365-0.077c-34.455,0-66.611,9.474-74.073,11.953c-0.866,1.894-1.474,3.276-2.768,5.198
		c-2.215,3.293-5.095,5.558-9.816,7.681c-3.497,1.576-6.374,2.311-9.056,2.311c-2.775,0.001-5.303-0.791-7.305-2.287
		c-3.738-2.77-4.949-7.18-3.596-13.11c0.887-3.888,1.777-7.771,2.669-11.651c0.515-2.248,2.121-4.172,4.407-5.275
		c0.397-0.191,0.796-0.384,1.198-0.574c-1.731-2.064-2.536-4.644-2.28-7.387c0.122-1.326,0.394-2.881,0.83-4.754
		c0.529-2.281,1.06-4.561,1.592-6.842l0.303-1.293c2.554-10.82,9.768-15.727,15.368-17.938c2.753-1.08,5.208-1.605,7.51-1.605
		c2.073,0,4.016,0.429,5.702,1.25c1.035-1.127,2.412-1.979,4.004-2.461c1.61-0.484,3.297-0.973,5.016-1.443
		c1.538-0.426,3.199-0.471,4.754-0.137c0.256-0.23,0.527-0.443,0.811-0.645c-6.662-10.738-9.884-23.718-8.316-37.247
		C52.326,27.852,81.129,5.03,112.969,8.72c23.459,2.718,42.02,19.068,48.691,40.222c4.637,2.801,8.747,7.901,7.634,16.697
		c-0.689,4.993-3.009,8.418-5.847,10.789c-1.191,6.809-3.542,13.158-6.824,18.864c7.577,1.731,12.389,3.213,12.502,3.248
		c0.23,0.067,0.471,0.138,0.716,0.209c2.186-0.965,4.812-1.09,7.114-0.325c2.056,0.682,4.118,1.4,6.131,2.134
		c1.472,0.537,2.753,1.418,3.7,2.535c1.597-0.138,3.19,0.101,4.642,0.695c1.464,0.603,2.952,1.232,4.425,1.873
		c2.45,1.068,4.173,3.032,4.727,5.389c4.239,18.015,8.423,36.076,12.435,53.687C213.713,167.806,212.271,170.93,209.339,172.693z"/>
	<g>
		<path fill="#F26722" d="M88.225,30.723c3.306-1.983,6.78-3.523,10.326-4.667c-0.979-3.812-0.024-6.649,1.045-8.44
			c0.98-1.643,2.361-2.965,3.899-4.035c-0.43,0.018-0.858,0.043-1.286,0.073c-0.223,0.015-0.443,0.034-0.665,0.052
			c-0.184,0.015-0.368,0.03-0.552,0.047c-0.294,0.027-0.586,0.057-0.88,0.089c-0.088,0.01-0.176,0.02-0.264,0.03
			c-0.337,0.039-0.673,0.08-1.009,0.125c-0.599,0.627-1.139,1.313-1.589,2.068c-1.067,1.792-2.023,4.628-1.044,8.44
			c-3.162,1.021-6.267,2.357-9.246,4.042L88.225,30.723z"/>
		<path fill="#F26722" d="M117.988,28.29c-0.453,0.009-0.909,0.021-1.367,0.039c-0.176,0.007-0.354,0.016-0.53,0.024
			c-0.404,0.018-0.81,0.039-1.216,0.063c-0.2,0.012-0.401,0.026-0.603,0.04c-0.388,0.027-0.776,0.058-1.167,0.091
			c-0.209,0.018-0.418,0.036-0.628,0.056c-0.392,0.037-0.783,0.079-1.175,0.123c-0.205,0.023-0.41,0.045-0.614,0.069
			c-0.42,0.051-0.84,0.109-1.26,0.168c-0.177,0.025-0.352,0.047-0.527,0.073c-0.595,0.089-1.189,0.186-1.784,0.292
			c1.51,1.115,3.437,2.246,5.595,3.396c1.145-0.303,2.581-0.64,4.231-0.931c-0.855-0.52-1.642-1.038-2.337-1.551
			c1.706-0.308,3.413-0.539,5.107-0.706c0.136-0.423,0.325-0.846,0.559-1.263c-0.638-0.005-1.281-0.004-1.93,0.006
			C118.226,28.283,118.107,28.288,117.988,28.29z"/>
		<path fill="#F26722" d="M69.467,47.097c-0.214-0.086-0.426-0.16-0.638-0.226c-0.057-0.018-0.113-0.031-0.168-0.048
			c-0.163-0.046-0.324-0.089-0.486-0.124c-0.052-0.011-0.104-0.021-0.154-0.03c-0.175-0.034-0.351-0.062-0.524-0.082
			c-0.034-0.004-0.068-0.008-0.102-0.012c-0.207-0.021-0.415-0.034-0.621-0.036c-0.002,0-0.004,0-0.004,0
			c-2.678,3.574-4.811,7.371-6.452,11.471c-2.451,6.152-3.794,13.045-4.063,21.076c0.161,0.563,0.334,1.124,0.515,1.68
			c0.056,0.171,0.118,0.34,0.175,0.51c0.13,0.384,0.259,0.769,0.396,1.15c0.135,0.371,0.28,0.738,0.424,1.105
			c0.069,0.178,0.133,0.358,0.205,0.537c0.219,0.544,0.446,1.083,0.684,1.62c-0.264-10.525,1.074-19.193,4.087-26.749
			C64.435,54.695,66.66,50.779,69.467,47.097z"/>
		<path fill="#F26722" d="M131.873,20.715c-0.028-0.017-0.056-0.035-0.084-0.052c-0.001,0-0.002,0-0.003,0
			c-7.286-0.659-15.929-0.631-24.483,1.299c-0.418-1.682-0.266-3.124,0.482-4.381c0.166-0.279,0.359-0.545,0.571-0.799
			c-0.001,0-0.001,0.001-0.001,0.001c-0.208,0.103-0.413,0.209-0.618,0.321c-0.008,0.004-0.015,0.008-0.022,0.012
			c-0.41,0.224-0.812,0.467-1.197,0.73c-0.019,0.013-0.036,0.026-0.055,0.038c-0.165,0.114-0.326,0.232-0.483,0.354
			c-0.03,0.024-0.061,0.047-0.091,0.07c-0.343,0.271-0.664,0.561-0.955,0.87c-0.035,0.038-0.07,0.078-0.105,0.116
			c-0.105,0.118-0.208,0.239-0.306,0.362c-0.035,0.045-0.071,0.09-0.106,0.136c-0.121,0.164-0.236,0.33-0.341,0.503
			c-0.747,1.256-0.898,2.696-0.479,4.38c7.989-1.805,16.057-1.948,23.022-1.421c0.118-0.034,0.233-0.072,0.351-0.1
			c0.723-0.167,1.412-0.23,2.076-0.191c0.842-0.808,1.876-1.559,3.049-2.113C132.02,20.806,131.948,20.759,131.873,20.715z"/>
		<path fill="#F26722" d="M70.693,41.987c0.047,0.016,0.093,0.033,0.139,0.05c0.183,0.064,0.364,0.133,0.547,0.206
			c0.066,0.026,0.134,0.054,0.2,0.083c0.168,0.07,0.334,0.144,0.502,0.221c0.063,0.03,0.129,0.059,0.194,0.09
			c0.225,0.108,0.45,0.22,0.676,0.341c3.069-3.288,6.687-6.394,10.906-9.376l-6.648-11.447c-0.447,0.297-0.887,0.604-1.324,0.915
			c-0.154,0.11-0.308,0.223-0.461,0.334c-0.147,0.108-0.297,0.212-0.442,0.321l0.003,0.006l5.361,9.231
			c-3.972,2.811-7.411,5.729-10.361,8.805c0.008,0.002,0.016,0.005,0.023,0.007C70.236,41.836,70.465,41.909,70.693,41.987z"/>
		<path fill="#F26722" d="M100.994,30.791c-3.512,1.058-6.932,2.509-10.146,4.451l1.284,2.214h0.001
			c2.443-1.247,4.981-2.244,7.57-3.022c0.888,1.024,2.003,1.99,3.296,2.929c1.577-0.581,3.163-1.056,4.755-1.41
			C104.921,34.305,102.596,32.64,100.994,30.791z"/>
		<path fill="#F26722" d="M74.898,53.331c-0.033-0.114-0.068-0.226-0.103-0.336c-0.069-0.224-0.144-0.44-0.221-0.652
			c-0.044-0.117-0.086-0.235-0.132-0.349c-0.079-0.205-0.167-0.401-0.256-0.594c-0.048-0.1-0.091-0.204-0.139-0.3
			c-0.141-0.279-0.288-0.548-0.448-0.798c-2.516,3.3-4.505,6.8-6.008,10.574c-1.619,4.062-2.705,8.512-3.275,13.485
			c0.817-1.459,1.675-2.904,2.587-4.315c0.514-0.831,1.056-1.668,1.613-2.508c0.365-1.18,0.771-2.329,1.217-3.447
			c1.384-3.474,3.18-6.715,5.42-9.782c0-0.001,0-0.002,0.001-0.003c-0.014-0.059-0.03-0.112-0.045-0.171
			C75.044,53.859,74.973,53.592,74.898,53.331z"/>
		<path fill="#F26722" d="M77.093,46.2c0.221,0.266,0.426,0.544,0.624,0.83c0.05,0.071,0.1,0.143,0.147,0.215
			c0.187,0.279,0.363,0.564,0.528,0.86c0.037,0.065,0.07,0.133,0.105,0.198c0.079,0.147,0.16,0.292,0.234,0.443
			c2.079-1.935,4.387-3.809,6.941-5.639l1.92,3.306c0.844-0.676,1.697-1.331,2.562-1.961l-3.665-6.311
			C82.883,40.723,79.762,43.394,77.093,46.2z"/>
	</g>
	<polygon fill="#CE181E" points="123.832,31.082 123.843,31.082 123.843,31.075 	"/>
	<path fill="#CE181E" d="M127.156,28.597c0.148,0.012,0.3,0.024,0.447,0.037c1.564-1.355,3.809-1.012,4.021-0.976
		c-0.27-0.141-0.533-0.261-0.79-0.366c-0.107-0.039-0.213-0.071-0.318-0.102c-0.217,0.003-0.401-0.027-0.486-0.121
		c-1.81-0.345-3.249,0.45-4.281,1.419c0.321,0.022,0.64,0.046,0.958,0.072C126.856,28.573,127.007,28.584,127.156,28.597z"/>
	<path fill="#CE181E" d="M123.855,31.067l-0.013,0.008c0,0.002,0,0.004,0,0.007c0.787-0.021,1.59-0.022,2.407,0.004
		c0.17-0.801,0.466-1.421,0.833-1.902c-0.666,0-1.337,0.008-2.014,0.025C124.271,30.166,123.855,31.067,123.855,31.067z"/>
	<path fill="#CE181E" d="M126.707,28.561c-0.318-0.025-0.637-0.049-0.958-0.072l-0.001,0.001
		C126.07,28.512,126.391,28.535,126.707,28.561z"/>
	<path fill="#CE181E" d="M127.156,28.597c0.148,0.013,0.294,0.027,0.442,0.041c0.001-0.001,0.003-0.003,0.005-0.003
		C127.456,28.621,127.305,28.609,127.156,28.597z"/>
	<path fill="#CE181E" d="M127.156,28.597c-0.149-0.013-0.3-0.024-0.449-0.037C126.856,28.573,127.007,28.584,127.156,28.597z"/>
	<path fill="#CE181E" d="M127.599,28.638c-0.148-0.013-0.294-0.028-0.442-0.041c-0.149-0.013-0.3-0.024-0.449-0.037
		c-0.316-0.025-0.637-0.048-0.959-0.071c-0.25,0.235-0.478,0.479-0.679,0.72c0.677-0.017,1.348-0.025,2.014-0.025
		C127.243,28.977,127.417,28.796,127.599,28.638z"/>
	<path fill="#CE181E" d="M142.269,27.57c1.362,0.616,2.283,2.299,2.629,4.181c0,0,0.002,0,0.004,0.001
		c0.141,0.167,0.278,0.336,0.416,0.505c-0.147-1.748-1.015-3.664-3.541-5.113c-0.001,0.08,0.001,0.161-0.004,0.24
		C141.938,27.431,142.104,27.491,142.269,27.57z"/>
	<path fill="#CE181E" d="M144.897,31.751c0.189,1.035,0.208,2.129,0.023,3.142c-0.123,0.677-0.32,1.227-0.574,1.661
		c-0.004,0.04-0.009,0.081-0.014,0.122c0.017,0.012,0.033,0.024,0.051,0.036c0.256-0.5,1.111-2.353,0.934-4.454
		c-0.138-0.168-0.275-0.338-0.416-0.505C144.899,31.751,144.898,31.751,144.897,31.751z"/>
	<path fill="#CE181E" d="M143.797,31.445c0.494,0.132,0.865,0.237,1.101,0.306c-0.346-1.882-1.267-3.565-2.629-4.181
		c-0.165-0.079-0.331-0.139-0.496-0.186c-0.038,0.478-0.154,0.942-0.308,1.372C141.732,28.89,143.001,29.604,143.797,31.445z"/>
	<path fill="#CE181E" d="M144.347,36.553c0.254-0.434,0.451-0.984,0.574-1.661c0.185-1.012,0.166-2.106-0.023-3.142
		c-0.235-0.068-0.606-0.174-1.101-0.306C144.311,32.631,144.623,34.287,144.347,36.553z"/>
	<path fill="#CE181E" d="M134.326,29.468c0.031,0.005,0.062,0.01,0.093,0.016c0.027,0.004,0.056,0.008,0.083,0.012
		c-0.003,0-0.007,0-0.01,0c0.01,0.001,0.02,0.003,0.028,0.004c0.101-1.664-0.613-2.885-1.233-3.615
		c-0.423,0.252-0.78,0.498-1.05,0.694C133.322,27.602,134.025,28.857,134.326,29.468z"/>
	<path fill="#CE181E" d="M134.419,29.484c-0.031-0.005-0.062-0.011-0.093-0.016c0,0,0,0,0,0.001
		C134.356,29.474,134.389,29.479,134.419,29.484z"/>
	<path fill="#CE181E" d="M134.333,29.483c0.106,0.219,0.164,0.355,0.164,0.355c0.015-0.116,0.018-0.226,0.023-0.339
		c-0.009-0.001-0.019-0.003-0.028-0.004C134.439,29.491,134.386,29.488,134.333,29.483z"/>
	<path fill="#CE181E" d="M134.502,29.496c-0.027-0.004-0.056-0.008-0.083-0.012c0.024,0.004,0.049,0.007,0.073,0.012
		C134.495,29.496,134.499,29.496,134.502,29.496z"/>
	<path fill="#CE181E" d="M134.333,29.483c0.053,0.004,0.106,0.008,0.159,0.012c-0.024-0.004-0.049-0.008-0.073-0.012
		c-0.03-0.005-0.062-0.01-0.093-0.015C134.328,29.475,134.33,29.478,134.333,29.483z"/>
	<path fill="#CE181E" d="M136.137,23.476c0.249,0.011,0.49,0.043,0.724,0.095c-0.259-0.061-0.536-0.1-0.837-0.108
		c0.007,0.004,0.013,0.009,0.02,0.013C136.073,23.476,136.105,23.475,136.137,23.476z"/>
	<path fill="#CE181E" d="M131.91,24.995c-0.281,0.202-0.571,0.432-0.869,0.683c0.024,0.014,0.051,0.026,0.075,0.041
		C131.359,25.463,131.625,25.221,131.91,24.995z"/>
	<path fill="#CE181E" d="M136.043,23.475c-0.007-0.004-0.013-0.008-0.02-0.013l0,0c0.006,0.004,0.012,0.009,0.018,0.013
		C136.041,23.475,136.041,23.475,136.043,23.475z"/>
	<path fill="#CE181E" d="M136.041,23.475c-0.006-0.004-0.012-0.008-0.018-0.013c-0.312-0.009-0.649,0.018-1.008,0.084
		C135.354,23.49,135.696,23.465,136.041,23.475z"/>
	<path fill="#CE181E" d="M136.043,23.475c0.096,0.07,0.192,0.14,0.288,0.211c0.401,0.299,0.798,0.604,1.189,0.914
		c0.588,0.042,1.162,0.208,1.694,0.552c-0.391-0.489-0.791-0.825-1.068-1.026c-0.346-0.226-0.773-0.434-1.286-0.554
		c-0.233-0.051-0.475-0.084-0.724-0.095C136.105,23.475,136.073,23.476,136.043,23.475z"/>
	<path fill="#CE181E" d="M131.116,25.718c0.165,0.099,0.325,0.206,0.479,0.318c0.263-0.484,0.855-0.948,0.855-0.948
		s0.393,0.275,0.836,0.797c1.02-0.607,2.402-1.246,3.767-1.294c-1.097-0.197-2.264-0.389-3.495-0.567
		c-0.514,0.234-1.063,0.55-1.648,0.971C131.625,25.221,131.359,25.463,131.116,25.718z"/>
	<path fill="#CE181E" d="M136.331,23.686c0.401,0.299,0.797,0.604,1.188,0.914c0,0,0,0,0.001,0
		C137.129,24.29,136.732,23.985,136.331,23.686z"/>
	<path fill="#CE181E" d="M136.041,23.475c0.097,0.071,0.194,0.14,0.29,0.211c-0.096-0.071-0.192-0.141-0.288-0.211
		C136.041,23.475,136.041,23.475,136.041,23.475z"/>
	<path fill="#CE181E" d="M137.054,24.591c0.155-0.005,0.311-0.002,0.466,0.009c-0.392-0.31-0.787-0.615-1.188-0.914
		c-0.096-0.071-0.193-0.14-0.29-0.211c-0.345-0.01-0.688,0.015-1.025,0.072c-0.449,0.085-0.936,0.238-1.457,0.477
		C134.79,24.202,135.957,24.394,137.054,24.591z"/>
	<path fill="#CE181E" d="M130.517,27.191c-0.165-0.048-0.327-0.091-0.486-0.121C130.115,27.164,130.3,27.194,130.517,27.191z"/>
	<path fill="#CE181E" d="M133.287,25.885c-0.443-0.522-0.836-0.797-0.836-0.797s-0.593,0.464-0.855,0.948
		c0.229,0.168,0.439,0.353,0.642,0.542C132.507,26.383,132.864,26.137,133.287,25.885z"/>
	<path fill="#DBDBDB" d="M142.821,43.53c-0.159-0.195-0.331-0.384-0.513-0.567c-0.006-0.006-0.012-0.013-0.018-0.019
		c-0.18-0.181-0.369-0.356-0.568-0.526c-0.008-0.007-0.018-0.016-0.025-0.023c-0.198-0.168-0.405-0.332-0.62-0.49
		c-0.011-0.008-0.021-0.016-0.031-0.023c-0.216-0.158-0.439-0.311-0.671-0.458c-0.011-0.007-0.021-0.013-0.03-0.02
		c-0.233-0.148-0.474-0.292-0.721-0.43c-0.009-0.005-0.017-0.009-0.026-0.014c-0.251-0.14-0.508-0.274-0.771-0.404
		c-0.004-0.002-0.009-0.004-0.012-0.005c-1.618-0.796-3.456-1.41-5.329-1.881l-0.002,0c-0.307-0.077-0.615-0.15-0.924-0.22
		c-0.009-0.002-0.018-0.004-0.025-0.006c-0.304-0.069-0.605-0.133-0.908-0.194c-0.014-0.002-0.027-0.005-0.04-0.008
		c-0.299-0.06-0.597-0.117-0.893-0.17c-0.018-0.003-0.033-0.006-0.05-0.009c-0.294-0.053-0.588-0.104-0.878-0.15
		c-0.017-0.003-0.032-0.005-0.049-0.008c-0.291-0.046-0.579-0.09-0.865-0.131c-0.014-0.002-0.029-0.004-0.044-0.006
		c-0.176-0.025-0.35-0.047-0.522-0.07c-0.109-0.015-0.219-0.031-0.327-0.044c-0.012-0.002-0.023-0.003-0.036-0.005
		c-0.282-0.035-0.562-0.069-0.835-0.099c-0.005,0-0.008-0.001-0.012-0.001c-0.84-0.092-1.633-0.161-2.357-0.21
		c-0.008,0-0.016-0.001-0.022-0.001c-0.229-0.016-0.45-0.029-0.666-0.04c-0.018-0.001-0.035-0.002-0.052-0.003
		c-0.207-0.011-0.404-0.021-0.595-0.028c-0.023-0.001-0.047-0.002-0.069-0.002c-0.184-0.007-0.358-0.013-0.526-0.018
		c-0.025,0-0.052-0.001-0.076-0.002c-0.163-0.004-0.317-0.006-0.464-0.008c-0.024,0-0.048,0-0.071-0.001
		c-0.144-0.001-0.276-0.001-0.401,0c-0.021,0-0.042,0-0.063,0c-0.121,0.001-0.235,0.003-0.337,0.007c-0.018,0-0.034,0-0.051,0.001
		c-0.101,0.004-0.193,0.008-0.273,0.013c-0.012,0-0.021,0.001-0.033,0.002c-0.079,0.005-0.149,0.011-0.204,0.018
		c-0.007,0-0.012,0.001-0.017,0.002c-0.057,0.007-0.102,0.014-0.131,0.022c-0.002,0-0.003,0.001-0.005,0.001
		c-0.029,0.008-0.047,0.018-0.046,0.027c-0.004,0.006-0.255,0.534,1.927,2.402c-2.102-0.02-4.247,0.193-6.4,0.587
		c-1.9,0.347-3.808,0.836-5.697,1.441c-4.377,1.402-8.656,3.413-12.534,5.65c-1.549,0.894-3.032,1.824-4.435,2.766
		c-0.483,0.325-0.959,0.652-1.423,0.979c-0.412,0.287-0.814,0.573-1.211,0.859c-4.274,3.089-7.563,6.13-9.643,8.197
		c-1.637,1.629-2.524,2.655-2.545,2.619c0.002,0.016,0.005-0.03,2.644-0.942c0.452-0.156,0.972-0.335,1.593-0.546
		c-0.535,0.406-1.054,0.833-1.559,1.274c-1.88,1.639-3.56,3.503-5.056,5.492c-5.838,7.757-8.899,17.382-10.188,22.688
		c-0.416,1.712-0.647,2.972-0.728,3.576c0.021-0.005,0.044-0.01,0.065-0.014c0.049-0.011,0.098-0.014,0.146-0.023
		c0.213-0.409,0.427-0.818,0.642-1.215c0.013-0.021,0.025-0.047,0.038-0.069c0.273-0.503,0.548-0.993,0.821-1.476
		c0.025-0.044,0.051-0.092,0.076-0.136c1.94-5.542,4.924-12.145,9.282-17.764c1.518-1.956,3.206-3.787,5.069-5.418
		c0.565-0.494,1.142-0.974,1.738-1.428c-0.682,0.232-1.261,0.431-1.758,0.603c-2.863,0.99-2.858,1.038-2.861,1.021
		c0.024,0.04,1.006-1.094,2.813-2.891c2.452-2.437,6.43-6.095,11.63-9.72c0.057-0.039,0.111-0.078,0.167-0.117
		c0.8-0.565,1.631-1.129,2.486-1.688c1.421-0.928,2.915-1.839,4.463-2.717c4.95-2.805,10.469-5.25,16.039-6.689
		c2.104-0.543,4.216-0.942,6.306-1.164c1.327-0.141,2.646-0.213,3.949-0.202c-2.378-2.036-2.104-2.613-2.098-2.618
		c-0.005-0.102,1.608-0.161,4.026-0.017c2.082,0.125,4.762,0.401,7.53,0.937c2.34,0.452,4.739,1.087,6.89,1.97h0.001
		C142.824,43.533,142.822,43.531,142.821,43.53z"/>
	<polygon fill="#FEBF40" points="147.286,56.497 147.286,56.497 147.284,56.496 	"/>
	<path fill="#FEBF40" d="M147.254,56.484c-0.001,0-0.002,0-0.002,0S147.253,56.483,147.254,56.484z"/>
	<path fill="#FEBF40" d="M148.586,55.268c-0.449,0.402-0.897,0.802-1.342,1.206c-0.001,0.003,0.002,0.005,0.007,0.009
		c0,0,0.002,0,0.003,0.001c0.006,0.003,0.016,0.007,0.03,0.012c0.001,0,0.001,0,0.001,0c0.447-0.39,0.892-0.783,1.342-1.171
		C148.614,55.305,148.6,55.286,148.586,55.268z"/>
	<g>
		<path fill="#F99D1C" d="M165.171,61.732c-0.001-0.021,0-0.043-0.001-0.064c-0.011-0.201-0.029-0.404-0.055-0.607
			c-0.007-0.063-0.017-0.127-0.025-0.19c-0.021-0.151-0.045-0.302-0.074-0.454c-0.012-0.063-0.023-0.127-0.036-0.191
			c-0.045-0.208-0.093-0.417-0.152-0.627c-0.271-0.942-0.697-1.774-1.233-2.512c-1.911-2.627-5.24-4.033-8.096-4.766
			c-1.633-0.419-3.11-0.618-4.079-0.699c-0.731-0.062-1.172-0.056-1.167-0.027c0.332,0.444,0.661,0.888,0.988,1.336
			c-0.463,0.397-0.92,0.801-1.375,1.203l0,0c0.002,0,2.756,0.146,5.722,1.366c0.223,0.091,0.446,0.189,0.669,0.292
			c1.087,0.505,2.177,1.162,3.146,2.015c1.209,1.013,2.185,2.288,2.713,3.883c0.776,2.055,0.965,4.665,0.156,7.981
			c0.03-0.04,0.062-0.079,0.093-0.119c0.064-0.083,0.127-0.168,0.19-0.253c0.053-0.072,0.106-0.143,0.158-0.215
			c0.104-0.145,0.205-0.292,0.305-0.439c0.047-0.071,0.093-0.144,0.14-0.215c0.062-0.096,0.124-0.193,0.184-0.29
			c0.046-0.074,0.09-0.148,0.135-0.223c0.065-0.11,0.129-0.222,0.19-0.333c0.033-0.061,0.068-0.12,0.102-0.181
			c0.087-0.163,0.172-0.328,0.251-0.494c0.034-0.067,0.064-0.135,0.096-0.203c0.054-0.115,0.105-0.23,0.156-0.346
			c0.019-0.046,0.038-0.091,0.058-0.138c0.011-0.025,0.022-0.05,0.031-0.076c0.056-0.135,0.107-0.271,0.158-0.407
			c0.018-0.049,0.037-0.097,0.055-0.146c0.063-0.179,0.121-0.358,0.175-0.54c0.02-0.065,0.037-0.131,0.055-0.196
			c0.036-0.129,0.07-0.26,0.103-0.391c0.016-0.069,0.032-0.137,0.047-0.206c0.034-0.158,0.065-0.316,0.092-0.476
			c0.006-0.037,0.014-0.072,0.02-0.109c0.03-0.191,0.053-0.384,0.072-0.577c0.006-0.065,0.011-0.13,0.016-0.195
			c0.011-0.14,0.019-0.28,0.023-0.422c0.002-0.068,0.005-0.135,0.006-0.203C165.183,62.096,165.18,61.914,165.171,61.732z"/>
		<path fill="#F99D1C" d="M161.471,69.157c0.253,0.184,0.505,0.373,0.755,0.571c0.003-0.004,0.006-0.008,0.009-0.012l-0.744-0.603
			C161.483,69.127,161.477,69.142,161.471,69.157z"/>
	</g>
	<g>
		<path fill="#ED1B34" d="M19.081,164.996c-2.591,1.169-4.548,1.711-6.157,1.713c-0.777,0-1.481-0.132-2.105-0.39
			c0.132,0.869,0.456,1.511,0.992,1.908c1.146,0.858,3.393,0.467,6.754-1.049c3.462-1.558,6.119-3.363,7.916-5.516
			c1.168-1.395,2.067-2.941,2.717-4.649c-0.404,0.625-0.841,1.228-1.322,1.804C25.87,161.215,22.994,163.237,19.081,164.996z"/>
		<path fill="#ED1B34" d="M33.699,151.383c-0.25,0.756-0.494,1.504-0.746,2.259c1.511-0.561,3.026-1.104,4.545-1.632
			c0.24-0.748,0.475-1.492,0.713-2.241l-0.398,0.139C36.423,150.391,35.044,150.886,33.699,151.383z"/>
		<path fill="#ED1B34" d="M47.551,146.786l-0.188,0.055c-0.004,0.67-0.013,1.342-0.015,2.011c1.578-0.464,3.159-0.911,4.743-1.339
			c-0.005-0.669-0.004-1.34-0.007-2.008C50.582,145.911,49.059,146.342,47.551,146.786z"/>
		<path fill="#ED1B34" d="M59.15,143.611l-0.208,0.05c-1.313,0.308-2.614,0.625-3.917,0.957c-0.101,0.695-0.2,1.391-0.299,2.088
			c1.381-0.354,2.764-0.691,4.146-1.015C58.966,144.997,59.058,144.305,59.15,143.611z"/>
		<path fill="#ED1B34" d="M69.872,143.575l-0.003-0.02c0.898-0.16,2.835-0.49,3.604-0.618c0.066-0.683,0.133-1.363,0.199-2.048
			l-0.285,0.049c-0.72,0.121-3.319,0.58-4.037,0.709l0.001,0.007c-0.245,0.045-0.488,0.091-0.731,0.138l-0.34,0.064
			c0.126,0.646,0.243,1.296,0.37,1.943C69.057,143.722,69.466,143.649,69.872,143.575z"/>
		<path fill="#ED1B34" d="M85.803,139.137c-0.043,0.672-0.084,1.342-0.127,2.015c1.492-0.157,2.983-0.299,4.479-0.425
			c0.032-0.668,0.065-1.338,0.099-2.006l-0.385,0.031C88.537,138.866,87.17,138.996,85.803,139.137z"/>
		<path fill="#ED1B34" d="M98.55,138.225l0.002-0.019c-0.441,0.023-2.249,0.13-2.695,0.155c0.101,0.658,0.197,1.315,0.299,1.974
			c0.438-0.026,1.773-0.08,2.212-0.103v-0.006c0.695-0.035,1.39-0.072,2.084-0.1c0.142-0.666,0.276-1.332,0.416-1.998l-0.812,0.031
			C99.562,138.178,99.057,138.202,98.55,138.225z"/>
		<path fill="#ED1B34" d="M110.087,138.013l-0.501-0.005c-1.342-0.011-2.688-0.003-4.03,0.01c-0.005,0.656-0.009,1.311-0.015,1.967
			c1.519-0.02,3.039-0.022,4.557-0.011C110.094,139.321,110.091,138.667,110.087,138.013z"/>
		<path fill="#ED1B34" d="M133.449,139.427l-0.329-0.038c-1.523-0.174-3.034-0.328-4.513-0.467c0.142,0.65,0.28,1.299,0.423,1.949
			c1.623,0.148,3.237,0.314,4.858,0.499C133.738,140.722,133.598,140.075,133.449,139.427z"/>
		<path fill="#ED1B34" d="M112.934,138.079c-0.107,0.647-0.204,1.295-0.312,1.941c1.584,0.037,3.165,0.089,4.745,0.158
			c0.094-0.641,0.181-1.285,0.271-1.929l-0.87-0.038C115.512,138.155,114.225,138.112,112.934,138.079z"/>
		<path fill="#ED1B34" d="M140.632,140.458c-1.339-0.204-2.728-0.401-4.126-0.586c0.049,0.632,0.098,1.265,0.146,1.897
			c1.618,0.209,3.231,0.436,4.843,0.683c-0.057-0.63-0.114-1.258-0.171-1.889L140.632,140.458z"/>
		<path fill="#ED1B34" d="M155.161,144.778c-0.195-0.646-0.397-1.289-0.595-1.933l-0.411-0.088c-1.595-0.342-3.194-0.662-4.77-0.962
			c0.176,0.638,0.35,1.278,0.523,1.924C151.664,144.049,153.413,144.403,155.161,144.778z"/>
		<path fill="#ED1B34" d="M165.35,145.737c-1.249-0.346-2.53-0.682-3.814-1.012c0.088,0.608,0.176,1.217,0.262,1.825
			c1.567,0.396,3.135,0.81,4.698,1.241c-0.094-0.606-0.188-1.211-0.28-1.818L165.35,145.737z"/>
		<path fill="#ED1B34" d="M178.73,149.895c-1.226-0.425-2.468-0.84-3.711-1.244c0.105,0.592,0.209,1.184,0.312,1.778
			c1.568,0.503,3.134,1.026,4.694,1.567c-0.107-0.589-0.219-1.176-0.326-1.767L178.73,149.895z"/>
		<path fill="#ED1B34" d="M189.455,160.284c-1.293-0.525-2.59-1.03-3.877-1.523c0.112,0.578,0.225,1.153,0.338,1.731
			c1.657,0.624,3.309,1.272,4.953,1.937c-0.117-0.571-0.232-1.144-0.349-1.713L189.455,160.284z"/>
		<path fill="#ED1B34" d="M206.532,168.042l-1.218-0.605c-1.562-0.778-3.163-1.551-4.771-2.305c0.264,0.613,0.527,1.228,0.791,1.844
			c1.865,0.867,3.722,1.762,5.569,2.684C206.779,169.119,206.657,168.583,206.532,168.042z"/>
		<path fill="#ED1B34" d="M57.176,163.614c-0.368,3.35-0.736,6.699-1.104,10.05c-0.133,1.183,0.838,1.863,2.171,1.544
			c1.208-0.289,2.417-0.57,3.629-0.839c0.067-0.708,0.14-1.417,0.207-2.126c-1.05,0.232-2.099,0.474-3.146,0.723
			c-0.258,0.059-0.445-0.076-0.424-0.303c0.326-3.069,0.647-6.14,0.969-9.208c0.023-0.228,0.252-0.464,0.5-0.522
			c1.024-0.24,2.051-0.477,3.08-0.703c0.07-0.709,0.137-1.419,0.207-2.126c-1.174,0.259-2.348,0.528-3.521,0.807
			C58.455,161.217,57.309,162.432,57.176,163.614z"/>
		<path fill="#ED1B34" d="M72.311,158.311c-0.793,0.139-1.584,0.283-2.373,0.432c-1.301,0.243-2.434,1.401-2.537,2.574
			c-0.295,3.329-0.591,6.658-0.888,9.988c-0.104,1.175,0.892,1.904,2.231,1.65c0.813-0.152,1.629-0.305,2.445-0.448
			c1.342-0.238,2.496-1.36,2.58-2.53c0.247-3.318,0.491-6.636,0.736-9.953C74.59,158.855,73.611,158.082,72.311,158.311z
			 M71.39,169.98c-0.019,0.227-0.244,0.447-0.501,0.495c-0.499,0.09-0.999,0.18-1.498,0.273c-0.258,0.05-0.455-0.096-0.434-0.322
			c0.256-3.053,0.512-6.104,0.768-9.154c0.02-0.227,0.239-0.449,0.493-0.496c0.488-0.091,0.978-0.181,1.466-0.269
			c0.253-0.044,0.446,0.105,0.428,0.331C71.871,163.884,71.63,166.932,71.39,169.98z"/>
		<path fill="#ED1B34" d="M86.111,162.32c0.064-1.302,0.129-2.604,0.19-3.903c0.056-1.164-0.953-1.994-2.259-1.836
			c-1.581,0.188-3.163,0.394-4.74,0.618c-0.303,4.718-0.604,9.437-0.906,14.155c0.811-0.118,1.619-0.229,2.43-0.336
			c0.117-2.006,0.238-4.011,0.355-6.016c0.161-0.021,0.326-0.043,0.488-0.064c0.654,1.906,1.317,3.813,1.989,5.727
			c0.85-0.1,1.7-0.195,2.552-0.287c-0.682-1.938-1.355-3.875-2.02-5.811C85.253,164.219,86.062,163.301,86.111,162.32z
			 M83.741,162.183c-0.014,0.224-0.231,0.433-0.487,0.465c-0.65,0.079-1.3,0.161-1.949,0.245c0.078-1.302,0.154-2.605,0.231-3.908
			c0.645-0.084,1.288-0.164,1.932-0.244c0.255-0.03,0.452,0.13,0.439,0.354C83.851,160.124,83.795,161.154,83.741,162.183z"/>
		<path fill="#ED1B34" d="M97.994,161.372c0.03-1.299,0.061-2.596,0.091-3.895c0.026-1.162-1.011-2.047-2.317-1.963
			c-1.586,0.098-3.169,0.216-4.754,0.352c-0.183,4.701-0.365,9.401-0.548,14.104c0.811-0.07,1.624-0.136,2.438-0.197
			c0.068-1.998,0.134-3.998,0.202-5.998c0.163-0.012,0.326-0.023,0.491-0.035c0.705,1.943,1.423,3.891,2.146,5.841
			c0.854-0.054,1.706-0.101,2.559-0.144c-0.737-1.979-1.464-3.953-2.179-5.926C97.18,163.224,97.973,162.35,97.994,161.372z
			 M95.607,161.1c-0.007,0.225-0.221,0.42-0.477,0.438c-0.651,0.043-1.304,0.088-1.955,0.137c0.044-1.299,0.089-2.598,0.133-3.896
			c0.646-0.049,1.291-0.093,1.938-0.136c0.255-0.017,0.456,0.155,0.45,0.379C95.667,159.047,95.637,160.074,95.607,161.1z"/>
		<path fill="#ED1B34" d="M102.564,169.266c0.814-0.023,1.624-0.042,2.439-0.058c0.038-4.691,0.077-9.382,0.116-14.075
			c-0.79,0.016-1.578,0.035-2.366,0.057C102.689,159.883,102.627,164.576,102.564,169.266z"/>
		<path fill="#ED1B34" d="M112.239,167.1c-0.008-1.296-0.017-2.592-0.026-3.891c1.208,0.021,2.418,0.049,3.626,0.088
			c-0.012-0.697-0.02-1.398-0.032-2.099c-1.203-0.04-2.406-0.067-3.609-0.087c-0.008-1.297-0.018-2.592-0.026-3.89
			c1.193,0.019,2.388,0.047,3.58,0.087c-0.01-0.701-0.021-1.398-0.032-2.1c-1.976-0.063-3.954-0.1-5.931-0.107
			c0.009,4.691,0.017,9.381,0.025,14.072c2.037,0.008,4.076,0.047,6.113,0.112c-0.011-0.698-0.021-1.399-0.032-2.099
			C114.675,167.149,113.459,167.119,112.239,167.1z"/>
		<path fill="#ED1B34" d="M125.139,155.728c0.08,2.312,0.162,4.624,0.243,6.937c-0.882-2.375-1.751-4.744-2.61-7.107
			c-0.794-0.052-1.591-0.102-2.388-0.145c0.114,4.695,0.234,9.39,0.349,14.085c0.813,0.046,1.627,0.093,2.438,0.149
			c-0.067-2.303-0.136-4.609-0.206-6.914c0.87,2.358,1.751,4.721,2.646,7.089c0.819,0.065,1.639,0.135,2.46,0.206
			c-0.188-4.701-0.378-9.402-0.567-14.104C126.716,155.853,125.927,155.79,125.139,155.728z"/>
		<path fill="#ED1B34" d="M139.258,157.301c-2.362-0.345-4.73-0.65-7.1-0.913c0.034,0.703,0.072,1.405,0.105,2.106
			c0.79,0.088,1.582,0.182,2.373,0.277c0.222,4.01,0.445,8.018,0.664,12.027c0.812,0.098,1.621,0.205,2.432,0.314
			c-0.242-4.014-0.484-8.025-0.726-12.036c0.796,0.107,1.596,0.218,2.391,0.333C139.352,158.706,139.305,158.004,139.258,157.301z"
			/>
		<path fill="#ED1B34" d="M146.681,170.424c-0.103-1.309-0.207-2.615-0.311-3.924c1.199,0.213,2.401,0.437,3.598,0.672
			c-0.061-0.708-0.121-1.414-0.185-2.121c-1.19-0.232-2.385-0.455-3.581-0.667c-0.103-1.308-0.206-2.618-0.311-3.924
			c1.187,0.208,2.368,0.43,3.552,0.659c-0.062-0.707-0.123-1.412-0.183-2.121c-1.96-0.379-3.923-0.732-5.888-1.058
			c0.35,4.728,0.7,9.454,1.052,14.182c2.024,0.339,4.047,0.704,6.068,1.101c-0.063-0.707-0.122-1.414-0.185-2.12
			C149.102,170.867,147.892,170.641,146.681,170.424z"/>
		<path fill="#ED1B34" d="M156.677,165.199c-0.505-0.579-0.683-1.226-0.444-1.757c0.236-0.514,0.799-0.706,1.504-0.54
			c0.799,0.187,1.597,0.38,2.395,0.576c-0.078-0.711-0.156-1.422-0.233-2.133c-0.794-0.196-1.587-0.386-2.382-0.574
			c-1.634-0.384-2.959,0.134-3.518,1.325c-0.534,1.199-0.141,2.776,1.05,4.109c1.204,1.371,2.423,2.752,3.644,4.145
			c0.513,0.584,0.694,1.234,0.455,1.763c-0.216,0.511-0.81,0.714-1.509,0.552c-1.02-0.233-2.035-0.462-3.054-0.683
			c0.066,0.708,0.133,1.417,0.201,2.125c1.025,0.224,2.046,0.45,3.068,0.687c1.662,0.385,3.048-0.101,3.571-1.279
			c0.549-1.171,0.121-2.771-1.079-4.137C159.117,167.973,157.893,166.579,156.677,165.199z"/>
	</g>
	<g>
		<path fill="#ED1C24" d="M137.846,23.926c-0.194-0.1-0.4-0.179-0.611-0.247c0.35,0.12,0.654,0.278,0.912,0.446
			C138.012,24.028,137.906,23.962,137.846,23.926z"/>
		<path fill="#ED1C24" d="M137.234,23.679c-0.119-0.041-0.243-0.077-0.374-0.108C136.988,23.599,137.111,23.639,137.234,23.679z"/>
		<path fill="#ED1C24" d="M143.797,31.445c-0.796-1.841-2.064-2.556-2.332-2.689c-0.286,0.798-0.701,1.47-0.987,1.88
			c-0.187,0.27-0.321,0.431-0.321,0.431c0.043-0.162,0.082-0.32,0.115-0.476c0.574-2.638-0.218-4.391-1.057-5.44
			c-0.532-0.343-1.106-0.509-1.694-0.552c-0.001,0-0.001,0-0.001,0c-0.155-0.011-0.311-0.014-0.466-0.009
			c-1.364,0.048-2.747,0.687-3.767,1.294c0.62,0.73,1.334,1.951,1.233,3.615c-0.006,0.113-0.009,0.223-0.023,0.339
			c-0.127-0.129-0.256-0.252-0.382-0.373c-0.013-0.011-0.025-0.024-0.036-0.035c-0.001-0.001-0.002-0.002-0.003-0.002
			c-0.846-0.791-1.671-1.362-2.451-1.771c-0.213-0.037-2.457-0.38-4.021,0.976c-0.002,0-0.004,0.002-0.005,0.003
			c-0.182,0.159-0.355,0.339-0.516,0.547c-0.367,0.48-0.663,1.101-0.833,1.902c0.297,0.009,0.595,0.022,0.896,0.039
			c5.808,0.225,12.16,1.833,17.148,5.522c0.019-0.029,0.035-0.063,0.053-0.094C144.623,34.287,144.311,32.631,143.797,31.445z"/>
		<path fill="#ED1C24" d="M135.016,23.547c-0.521,0.088-1.027,0.25-1.513,0.468c-0.571,0.258-1.109,0.594-1.593,0.979
			c0.585-0.421,1.135-0.736,1.648-0.971C134.08,23.785,134.566,23.632,135.016,23.547z"/>
		<path fill="#ED1C24" d="M129.685,79.146c-0.491-1.181-0.5-1.985-0.597-2.628c-0.123-0.817-0.388-1.375-1.966-2.111
			c-0.538,1.059-0.571,2.668-0.475,4.107c0.042,0.61,0.103,1.193,0.163,1.686c0.214,1.748,1.008,3.536,1.354,5.031
			c-0.754-1.206-1.448-2.106-2.006-3.042c-0.422-0.709-0.764-1.442-0.994-2.342c-0.166-0.651-0.276-1.39-0.312-2.276
			c-0.045-1.134,0.346-3.01,0.5-4.15l-0.275-0.706l-0.032-0.082c-0.317,0.22-0.805,0.574-1.376,1.04
			c-2.103,1.718-5.339,4.97-5.417,8.765c-0.024,1.187,0.263,2.427,0.987,3.69c0.168,0.292,0.357,0.584,0.574,0.878
			c0.555,0.592,1.226,1.134,2.028,1.614c0.489,0.292,1.024,0.563,1.613,0.806c2.447,1.05,4.934,1.002,6.511-0.183
			c1.261-0.947,1.939-2.621,1.545-5.044C131.194,82.261,130.414,80.897,129.685,79.146z"/>
		<path fill="#ED1C24" d="M131.421,74.972c-0.009,0.263,0.394,2.678,0.493,2.837c-0.148,2.116,3.004,3.008,2.26,8.672
			c0.355,4.174,5.37,3.188,5.056-1.064C137.896,78.696,134.999,78.931,131.421,74.972z"/>
	</g>
	<g>
		<path fill="#FFFFFF" d="M128.809,37.764c-0.177-0.025-0.353-0.049-0.527-0.073c-0.106-0.014-0.215-0.028-0.322-0.042
			c0.108,0.013,0.218,0.029,0.327,0.044C128.459,37.717,128.633,37.739,128.809,37.764z"/>
		<path fill="#FFFFFF" d="M133.486,38.668c1.873,0.471,3.711,1.084,5.329,1.881C137.197,39.753,135.359,39.139,133.486,38.668z"/>
		<path fill="#FFFFFF" d="M66.253,93.044c-0.013,0.022-0.025,0.048-0.038,0.069c-0.215,0.396-0.429,0.806-0.642,1.215
			c0.213-0.41,0.427-0.816,0.642-1.213C66.228,93.092,66.24,93.068,66.253,93.044z"/>
		<path fill="#FFFFFF" d="M133.473,54.033c0.955-0.192,1.683-0.406,1.683-0.406c0.003,0.004-1.312-0.265-3.11-0.516
			c-1.641-0.229-3.686-0.442-5.497-0.417c-0.015,0.042,1.241,6.929,7.288,5.332c1.279-0.36,2.11-1.273,2.572-1.949
			c0.307-0.449,0.452-0.793,0.452-0.794c-0.301,0.191-0.592,0.351-0.873,0.486c-3.997,1.919-5.952-1.504-5.797-1.482
			C131.136,54.426,132.438,54.242,133.473,54.033z"/>
		<path fill="#FFFFFF" d="M31.67,135.471c-0.222-0.44-0.542-0.848-0.952-1.217c-1.194-1.081-2.394-1.965-3.605-2.648
			c-1.213-0.681-2.331-1.57-3.351-2.675c-0.372-0.407-0.577-0.846-0.62-1.313c-0.042-0.468,0.067-1.285,0.327-2.451
			c0.611-2.735,1.223-5.465,1.833-8.195c0.597-2.639,2.071-4.463,4.448-5.409c1.389-0.552,2.234-0.487,2.531,0.169
			c0.295,0.66,0.301,1.671,0.014,3.037c-0.65,3.091-1.299,6.184-1.947,9.277c1.654-0.646,3.312-1.271,4.977-1.879
			c0.656-3.285,1.313-6.568,1.972-9.849c0.604-3.019,0.416-5.036-0.539-6.054c-0.958-1.016-2.966-0.975-6.024,0.227
			c-5.655,2.232-9.162,6.598-10.615,12.746c-0.646,2.781-1.297,5.566-1.943,8.354c-0.369,1.586-0.602,2.898-0.698,3.932
			c-0.097,1.037,0.196,1.862,0.888,2.475c0.607,0.611,1.211,1.14,1.807,1.58c0.598,0.443,1.197,0.848,1.801,1.21
			c0.602,0.367,1.186,0.741,1.752,1.13c0.564,0.389,1.119,0.834,1.672,1.336c0.25,0.261,0.461,0.508,0.633,0.741
			c0.17,0.233,0.285,0.522,0.348,0.862c0.062,0.339,0.062,0.766,0,1.277c-0.063,0.513-0.182,1.19-0.357,2.033
			c-0.539,2.596-1.08,5.193-1.617,7.795c-0.275,1.333-0.795,2.475-1.562,3.43c-0.766,0.957-1.872,1.747-3.311,2.389
			c-1.49,0.664-2.419,0.689-2.788,0.049c-0.371-0.639-0.392-1.682-0.072-3.127c0.813-3.698,1.629-7.393,2.447-11.084
			c-1.743,0.785-3.477,1.596-5.204,2.43c-0.915,3.98-1.829,7.969-2.739,11.96c-0.689,3.014-0.471,4.948,0.677,5.799
			c1.146,0.855,3.393,0.463,6.753-1.052c3.463-1.557,6.119-3.363,7.918-5.514c1.797-2.15,2.977-4.657,3.547-7.562
			c0.514-2.596,1.026-5.188,1.537-7.781c0.209-1.053,0.359-1.984,0.451-2.793c0.092-0.806,0.107-1.502,0.045-2.088
			C32.035,136.429,31.892,135.917,31.67,135.471z"/>
		<path fill="#FFFFFF" d="M47.644,103.868c-4.653,14.887-9.546,29.986-14.654,45.353c1.512-0.562,3.028-1.106,4.546-1.634
			c0.812-2.541,1.621-5.078,2.42-7.605c2.484-0.834,4.979-1.619,7.482-2.36c-0.023,2.272-0.042,4.54-0.053,6.809
			c1.58-0.465,3.16-0.912,4.744-1.341c-0.111-13.483,0.033-27.03,0.435-40.64C50.922,102.901,49.278,103.374,47.644,103.868z
			 M47.764,123.77c-0.099,3.426-0.19,6.889-0.273,10.391c-2.115,0.629-4.227,1.286-6.328,1.979
			c1.227-3.877,2.422-7.692,3.584-11.447c1.166-3.758,2.321-7.592,3.472-11.507C48.016,116.819,47.863,120.348,47.764,123.77z"/>
		<path fill="#FFFFFF" d="M72.637,104.327c-0.259,2.363-0.518,4.726-0.775,7.089c-0.038,0.339-0.073,0.671-0.11,1.008
			c-0.021,0.187-0.041,0.372-0.062,0.559c-0.252,2.308-0.501,4.587-0.743,6.816c-0.297,2.737-0.585,5.528-0.854,8.375
			c-0.948-6.188-1.794-12.384-2.558-18.591c-0.031-0.254-0.063-0.508-0.095-0.762c-0.393-3.223-0.77-6.445-1.112-9.674
			c-1.699,0.348-3.396,0.717-5.09,1.108c-0.078,0.538-0.155,1.079-0.232,1.618c-0.032,0.226-0.064,0.452-0.098,0.678
			c-1.906,13.223-3.81,26.466-5.709,39.73c1.381-0.353,2.764-0.688,4.146-1.015c0.534-4.005,1.066-8.007,1.6-12.006
			c0.424-3.187,0.837-6.281,1.236-9.278c0.399-3.001,0.794-6.088,1.182-9.26c1.376,9.577,3.008,19.123,4.889,28.652
			c1.605-0.304,3.212-0.59,4.823-0.861c0.751-7.683,1.505-15.355,2.258-23.032c0.017-0.168,0.033-0.336,0.05-0.504
			c0.259-2.645,0.518-5.29,0.778-7.935c0.319-3.273,0.641-6.551,0.962-9.822c-1.262,0.191-2.517,0.395-3.774,0.606
			C73.111,99.994,72.874,102.161,72.637,104.327z"/>
		<path fill="#FFFFFF" d="M110.52,116.128c-0.031-5.472-0.061-10.942-0.092-16.415c-0.009-1.625-0.018-3.252-0.027-4.879
			c-1.989-0.015-3.978-0.002-5.968,0.04c-1.162,6.913-2.403,13.837-3.705,20.774c-0.382,2.032-0.769,4.066-1.163,6.102
			c-0.142,0.738-0.286,1.477-0.43,2.215c-0.191,0.973-0.375,1.944-0.568,2.918c-0.145-1.016-0.281-2.03-0.424-3.046
			c-0.105-0.76-0.212-1.521-0.316-2.28c-0.416-3.021-0.82-6.04-1.209-9.06c-0.736-5.729-1.428-11.458-2.067-17.187
			c-1.928,0.131-3.856,0.287-5.784,0.472c-0.141,2.245-0.281,4.491-0.422,6.735c-0.174,2.793-0.349,5.587-0.523,8.381
			c-0.006,0.111-0.014,0.225-0.021,0.336c-0.038,0.625-0.078,1.249-0.116,1.873c-0.163,2.598-0.325,5.195-0.487,7.793
			c-0.006,0.094-0.012,0.189-0.019,0.283c-0.323,5.183-0.647,10.361-0.972,15.546c1.491-0.157,2.984-0.299,4.478-0.425
			c0.205-4.121,0.415-8.242,0.622-12.366c0.025-0.496,0.047-0.979,0.071-1.472c0.04-0.838,0.082-1.676,0.121-2.502
			c0.077-1.639,0.151-3.262,0.222-4.859c0.104-2.387,0.2-4.829,0.296-7.305c0.02-0.511,0.039-1.013,0.06-1.527
			c0.077,0.627,0.16,1.253,0.238,1.879c0.477,3.812,0.977,7.627,1.5,11.441c0.163,1.189,0.33,2.378,0.497,3.567
			c0.601,4.249,1.225,8.499,1.883,12.752c1.433-0.083,2.863-0.154,4.297-0.208c0.806-3.805,1.583-7.603,2.344-11.397
			c0.105-0.526,0.211-1.052,0.315-1.577c0.425-2.133,0.839-4.264,1.249-6.393c0.687-3.573,1.361-7.145,2.009-10.711
			c-0.034,1.672-0.064,3.319-0.092,4.951c-0.021,1.297-0.042,2.586-0.06,3.857c-0.01,0.631-0.017,1.277-0.024,1.915
			c-0.029,2.261-0.055,4.552-0.07,6.892c-0.004,0.391-0.006,0.779-0.009,1.17c-0.027,3.717-0.054,7.433-0.081,11.15
			c1.52-0.02,3.039-0.023,4.557-0.01c-0.021-3.764-0.042-7.528-0.062-11.293C110.549,121.55,110.534,118.839,110.52,116.128z"/>
		<path fill="#FFFFFF" d="M127.79,111.323c0,0-0.001-0.001-0.001-0.002c-0.225-1.072-0.451-2.145-0.674-3.217
			c-0.878-4.234-1.74-8.465-2.571-12.687c-1.658-0.126-3.318-0.229-4.978-0.313c-0.024-0.002-0.05-0.002-0.074-0.004
			c-0.212,1.703-0.441,3.408-0.66,5.113c-0.643,4.968-1.311,9.938-2.027,14.91c-0.412,2.854-0.843,5.708-1.279,8.562
			c-0.606,3.969-1.229,7.939-1.884,11.912c1.585,0.035,3.167,0.088,4.747,0.159c0.325-2.263,0.64-4.522,0.946-6.784
			c2.579,0.127,5.157,0.299,7.73,0.518c0.496,2.317,1.002,4.636,1.512,6.958c1.621,0.147,3.239,0.315,4.857,0.501
			c-1.345-5.815-2.634-11.61-3.888-17.395C128.95,116.808,128.366,114.063,127.79,111.323z M119.789,125.534
			c0.127-0.936,0.245-1.859,0.368-2.789c0.332-2.52,0.655-5.025,0.96-7.501c0.055-0.442,0.106-0.89,0.16-1.335
			c0.312-2.602,0.605-5.256,0.883-7.964c0.039-0.38,0.078-0.759,0.117-1.142c0.109,0.643,0.221,1.279,0.331,1.915
			c0.374,2.14,0.758,4.249,1.153,6.327c0.152,0.805,0.307,1.605,0.464,2.4c0.373,1.903,0.755,3.824,1.141,5.754
			c0.316,1.582,0.634,3.168,0.958,4.768C124.148,125.792,121.971,125.645,119.789,125.534z"/>
		<path fill="#FFFFFF" d="M147.637,119.798c2.322-0.589,3.278-2.378,2.904-5.415c-0.342-2.766-0.682-5.529-1.02-8.292
			c-0.036-0.29-0.082-0.569-0.131-0.843c-0.41-2.315-1.272-4.097-2.586-5.322c-0.614-0.571-1.34-1.06-2.168-1.47
			c-1.151-0.571-2.507-0.987-4.083-1.228c-2.349-0.357-4.7-0.675-7.059-0.952c0.292,3.755,0.585,7.515,0.876,11.271
			c0.24,3.071,0.479,6.145,0.718,9.217c0.534,6.859,1.067,13.718,1.602,20.582c1.616,0.21,3.231,0.438,4.843,0.684
			c-0.565-6.229-1.128-12.454-1.695-18.682c0.824,0.123,1.648,0.246,2.473,0.378c0.202,0.03,0.385,0.061,0.545,0.088
			c0.16,0.024,0.34,0.038,0.537,0.036c1.002,3.259,1.953,6.474,2.856,9.646c0.902,3.17,1.806,6.438,2.716,9.801
			c1.755,0.332,3.504,0.684,5.251,1.057c-1.036-3.41-2.1-6.814-3.183-10.206C149.948,126.756,148.815,123.305,147.637,119.798z
			 M145.406,116.017c-0.537,0.45-1.502,0.556-2.895,0.333c-0.996-0.16-1.992-0.311-2.988-0.455c-0.055-0.609-0.11-1.219-0.166-1.828
			c-0.29-3.195-0.581-6.39-0.871-9.584c-0.115-1.268-0.23-2.535-0.346-3.803c0.934,0.131,1.866,0.268,2.798,0.41
			c0.374,0.057,0.72,0.129,1.035,0.215c0.968,0.264,1.663,0.658,2.084,1.175c0.562,0.689,0.927,1.788,1.093,3.299
			c0.124,1.122,0.248,2.244,0.371,3.366c0.163,1.479,0.326,2.957,0.49,4.437C146.141,114.756,145.94,115.568,145.406,116.017z"/>
		<path fill="#FFFFFF" d="M165.786,106.436c-0.224-1.326-0.448-2.649-0.671-3.973c-3.743-1.033-7.508-1.957-11.285-2.778
			c-1.051-0.229-2.102-0.454-3.154-0.666c0.169,1.3,0.334,2.602,0.503,3.899c0.059,0.012,0.117,0.024,0.177,0.036
			c1.681,0.343,3.358,0.708,5.031,1.095c1.82,12.674,3.636,25.367,5.447,38.079c1.568,0.396,3.137,0.809,4.698,1.239
			c-1.967-12.79-3.938-25.556-5.915-38.301C162.343,105.502,164.066,105.958,165.786,106.436z"/>
		<path fill="#FFFFFF" d="M167.88,103.243c2.505,14.22,5.002,28.473,7.488,42.762c1.57,0.504,3.136,1.029,4.696,1.569
			c-2.654-14.398-5.319-28.754-7.992-43.067C170.677,104.069,169.279,103.649,167.88,103.243z"/>
		<path fill="#FFFFFF" d="M206.939,165.236c-4.211-18.48-8.466-36.845-12.76-55.096c-1.447-0.63-2.902-1.245-4.358-1.845
			c1.347,5.935,2.69,11.878,4.028,17.834c0.844,3.75,1.669,7.428,2.475,11.03c0.808,3.605,1.652,7.3,2.538,11.089
			c-5.97-14.723-11.729-29.078-17.242-43.129c-2.001-0.73-4.009-1.428-6.024-2.098c3.472,17.61,6.926,35.293,10.357,53.047
			c1.656,0.626,3.308,1.271,4.952,1.938c-1.037-5.136-2.077-10.266-3.12-15.385c-0.831-4.08-1.639-8.039-2.421-11.871
			c-0.786-3.832-1.62-7.791-2.499-11.871c5.91,14.181,12.093,28.715,18.506,43.674C203.236,163.42,205.094,164.317,206.939,165.236z
			"/>
		<path fill="#FFFFFF" d="M125.387,61.052c0.033-0.018,0.053-0.029,0.048-0.03c0,0-0.048-0.011-0.141-0.03
			c-0.335-0.074-1.294-0.317-2.789-0.92c-1.845-0.784-5.745-5.55-5.769-5.528c0.001,0.013-1.006,0.201-5.098,0.973
			c3.528-4.847,8.737-6.679,12.005-7.179c0.576-0.087,1.098-0.139,1.532-0.153c1.834-0.105,4.858,0.792,8.261,1.345
			c2.086,0.34,4.314,0.55,6.497,0.319c0.982-0.1,1.779-0.238,2.422-0.413c2.135-0.58,2.541-1.564,2.135-2.888
			c-0.191-0.623-0.56-1.32-1.015-2.087c-0.19-0.324-0.409-0.633-0.652-0.929c-2.15-0.883-4.55-1.519-6.89-1.97
			c-2.769-0.535-5.448-0.812-7.53-0.937c-2.418-0.145-4.031-0.085-4.026,0.017c-0.007,0.005-0.28,0.582,2.098,2.618
			c-1.303-0.012-2.622,0.061-3.949,0.202c-2.09,0.221-4.201,0.62-6.306,1.164c-5.57,1.439-11.089,3.884-16.039,6.689
			c-1.548,0.878-3.042,1.789-4.463,2.717c-0.855,0.559-1.687,1.123-2.486,1.688c-0.056,0.039-0.11,0.078-0.167,0.117
			c-5.2,3.625-9.178,7.283-11.63,9.72c-1.808,1.797-2.789,2.931-2.813,2.891c0.003,0.017-0.002-0.031,2.861-1.021
			c0.497-0.171,1.076-0.37,1.758-0.603c-0.597,0.454-1.173,0.934-1.738,1.428c-1.863,1.632-3.552,3.463-5.069,5.418
			c-4.358,5.619-7.342,12.221-9.282,17.764c-0.025,0.044-0.051,0.091-0.076,0.136c3.266-5.75,6.604-10.063,9.6-13.247
			c1.819-1.932,3.512-3.452,4.985-4.623c3.401-2.703,5.636-3.562,5.554-3.423c-2.304,3.883-3.928,7.671-5.064,10.951
			c-2.111,6.094-2.534,10.43-2.472,10.329c1.066-1.716,2.126-3.291,3.218-4.79c4.226-5.805,8.941-10.425,16.466-17.263
			c-2.489,4.214-3.912,10.118-4.676,20.917c0.12-0.002,0.24-0.005,0.36-0.003c2.278-5.117,5.553-10.24,9.584-14.666
			c0.747-0.82,1.521-1.614,2.317-2.381c0.093-0.088,0.181-0.179,0.271-0.266c-0.013,0.226-0.026,0.452-0.032,0.677
			c-0.067,2.378,0.236,4.724,0.688,6.836c0.088,0.409,0.181,0.811,0.278,1.2c0.445,1.789,0.974,3.355,1.433,4.564
			c0.608,1.599,1.093,2.572,1.093,2.572c-0.059-0.821-0.07-1.62-0.062-2.407c0.002-0.158,0.002-0.317,0.007-0.474
			c0.052-1.85,0.279-3.604,0.647-5.257c0.525-2.355,1.326-4.511,2.289-6.459c1.123-2.265,2.459-4.248,3.826-5.948
			C121.048,63.851,124.918,61.346,125.387,61.052z"/>
	</g>
	<g>
		<path fill="#FFCC40" d="M164.271,66.356c0.019-0.043,0.039-0.086,0.058-0.13c0.012-0.027,0.021-0.056,0.031-0.083
			c-0.009,0.025-0.021,0.05-0.031,0.076C164.309,66.265,164.289,66.311,164.271,66.356z"/>
		<path fill="#FFCC40" d="M159.402,57.806c-0.97-0.853-2.06-1.51-3.146-2.015c-0.223-0.104-0.446-0.201-0.669-0.292
			c-2.966-1.219-5.72-1.366-5.722-1.366l0,0c-0.397,0.35-0.793,0.7-1.187,1.051c-0.48,0.429-0.96,0.858-1.435,1.291
			c0.444-0.404,0.893-0.804,1.342-1.206c0.014,0.018,0.028,0.037,0.041,0.057c-0.45,0.388-0.895,0.781-1.341,1.172
			c0.156,0.051,0.836,0.229,3.516,1.121c0.747,0.248,1.647,0.552,2.736,0.923c-0.262-0.029-0.524-0.049-0.786-0.07
			c-0.396,0.037-0.784,0.084-1.172,0.132c-2.039,0.254-3.959,0.665-5.762,1.19c-1.242,0.362-2.433,0.773-3.562,1.231
			c-6.195,2.514-10.694,6.275-13.451,9.093c2.858-1.575,9.616-4.564,17.081-5.028c1.248-0.078,2.515-0.086,3.786-0.003
			c2.205,0.142,4.424,0.551,6.58,1.323c0.267,0.095,0.532,0.198,0.796,0.305h0.002c1.518,0.613,3.002,1.417,4.42,2.443
			c0.006-0.015,0.013-0.03,0.02-0.044l0.744,0.603c-0.003,0.004-0.006,0.008-0.009,0.012c0.001,0,0.001,0,0.001,0
			c0.003-0.003,0.006-0.007,0.01-0.011l0.02,0.017c0.006-0.02,0.009-0.039,0.015-0.059c0.031-0.041,0.062-0.083,0.094-0.124
			c-0.03,0.04-0.062,0.079-0.093,0.119c0.809-3.316,0.62-5.926-0.156-7.981C161.587,60.093,160.611,58.818,159.402,57.806z"/>
	</g>
	<g>
		<path fill="#F47D20" d="M98.84,13.994c-0.002,0.001-0.002,0.002-0.004,0.003c0.338-0.045,0.675-0.089,1.013-0.128
			C99.512,13.909,99.176,13.949,98.84,13.994z"/>
		<path fill="#F47D20" d="M96.207,24.502c-0.979-3.812-0.023-6.648,1.044-8.44c0.45-0.753,0.988-1.438,1.585-2.064
			c-6.05,0.814-11.843,2.693-17.131,5.491l6.52,11.234l-1.264-2.178C89.94,26.86,93.045,25.523,96.207,24.502z"/>
		<path fill="#F47D20" d="M120.272,28.275c0-0.001,0-0.001,0-0.001c-0.638-0.005-1.281-0.003-1.93,0.008
			C118.991,28.271,119.635,28.27,120.272,28.275z"/>
		<path fill="#F47D20" d="M153.46,46.041c-1.241-3.124-2.784-6.114-4.598-8.929c-0.278,1.013-0.693,1.869-1.243,2.559
			c1.578,1.765,2.904,3.839,3.875,6.268C151.973,45.906,152.649,45.934,153.46,46.041z"/>
		<path fill="#F47D20" d="M116.943,31.794c0.795-0.14,1.641-0.269,2.525-0.379c-0.026-0.383-0.01-0.778,0.064-1.183
			c0.042-0.23,0.106-0.462,0.181-0.695c-1.694,0.167-3.401,0.398-5.107,0.706C115.302,30.756,116.088,31.274,116.943,31.794z"/>
		<path fill="#F47D20" d="M56.289,79.203c0.151,0.524,0.311,1.045,0.479,1.563C56.6,80.249,56.44,79.727,56.289,79.203z"/>
		<path fill="#F47D20" d="M56.289,79.203c-0.013-0.042-0.023-0.083-0.035-0.125c0,0.003,0,0.006,0,0.009
			C56.264,79.126,56.277,79.164,56.289,79.203z"/>
		<path fill="#F47D20" d="M54.79,57.537c-1.085,7.411-0.501,14.721,1.464,21.541c0.271-8.027,1.613-14.917,4.063-21.067
			c1.642-4.101,3.774-7.897,6.451-11.471c-0.604-0.005-1.204,0.068-1.802,0.229C60.127,48.077,56.184,54.579,54.79,57.537z"/>
		<path fill="#F47D20" d="M106.518,17.846c0.385-0.263,0.787-0.507,1.197-0.73C107.304,17.34,106.902,17.583,106.518,17.846z"/>
		<path fill="#F47D20" d="M105.889,18.309c-0.343,0.271-0.664,0.561-0.955,0.87C105.225,18.87,105.546,18.58,105.889,18.309z"/>
		<path fill="#F47D20" d="M132.094,20.851c0.001,0,0.002-0.001,0.003-0.001c-0.075-0.044-0.148-0.09-0.224-0.134
			C131.948,20.759,132.02,20.806,132.094,20.851z"/>
		<path fill="#F47D20" d="M110.796,15.767c-0.763,0.267-1.604,0.604-2.439,1.015c-0.212,0.254-0.405,0.52-0.571,0.799
			c-0.748,1.257-0.9,2.699-0.482,4.381c8.555-1.93,17.197-1.958,24.483-1.299c-4.829-2.857-10.207-4.971-16.01-6.129
			C115.601,14.553,113.393,14.867,110.796,15.767z"/>
		<path fill="#F47D20" d="M70.008,41.772c-0.008-0.002-0.016-0.005-0.023-0.007c2.95-3.075,6.39-5.994,10.361-8.805l-5.361-9.231
			c-7.023,5.226-12.737,12.239-16.378,20.529c1.491-1.123,3.155-2.031,4.985-2.526C65.731,41.149,67.878,41.169,70.008,41.772z"/>
		<path fill="#F47D20" d="M99.704,34.434c-2.589,0.779-5.127,1.775-7.57,3.022l2.37,4.082c2.773-1.694,5.616-3.113,8.496-4.175
			C101.707,36.423,100.592,35.458,99.704,34.434z"/>
		<path fill="#F47D20" d="M69.734,64.09c-0.446,1.118-0.852,2.267-1.217,3.447c2.129-3.203,4.565-6.438,7.242-9.565
			c-0.147-1.318-0.344-2.544-0.605-3.664C72.914,57.375,71.118,60.616,69.734,64.09z"/>
		<path fill="#F47D20" d="M73.601,50.301c0.159,0.25,0.308,0.519,0.448,0.798C73.908,50.82,73.761,50.551,73.601,50.301z"/>
		<path fill="#F47D20" d="M78.732,48.746c-0.074-0.15-0.155-0.296-0.234-0.443c0.768,1.419,1.327,3.025,1.738,4.787
			c2.332-2.373,4.796-4.623,7.357-6.677l-1.92-3.306C83.119,44.937,80.812,46.811,78.732,48.746z"/>
		<path fill="#F47D20" d="M156.768,74.507c-0.383-0.315-1.138-0.887-2.218-1.511c-0.506-0.291-1.083-0.592-1.728-0.884
			c-0.706-0.319-1.489-0.625-2.351-0.89c-0.28-0.086-0.567-0.168-0.862-0.245c-3.54-0.917-8.193-1.068-13.633,1.183
			c-0.132,0.054-0.26,0.102-0.392,0.159c-0.029,0.012-0.059,0.024-0.087,0.036c-0.967,0.407-1.719,0.797-2.168,1.044
			c0.008,0.003,0.016,0.006,0.023,0.009c0.07,0.028,0.144,0.059,0.219,0.091c1.839,0.774,5.307,2.737,7.551,7.083
			c1.478,2.861,2.419,6.756,2.014,12.027c-0.001,0.004-0.001,0.007-0.001,0.011l1.778,0.296c1.183,0.21,2.336,0.424,3.458,0.64
			c0.922-1.372,1.781-2.792,2.573-4.26c1.443-2.485,3.204-5.718,4.468-8.701c0.494-1.167,0.912-2.294,1.204-3.323
			c0.265-0.933,0.427-1.786,0.448-2.511C157.065,74.762,156.962,74.666,156.768,74.507z"/>
	</g>
	<g>
		<path fill="#610000" d="M145.521,109.145c-0.123-1.122-0.247-2.244-0.371-3.366c-0.166-1.511-0.531-2.609-1.093-3.299
			c-0.421-0.517-1.116-0.911-2.084-1.175c-0.315-0.086-0.661-0.158-1.035-0.215c-0.932-0.143-1.864-0.279-2.798-0.41
			c0.115,1.268,0.23,2.535,0.346,3.803c0.29,3.194,0.581,6.389,0.871,9.584c0.056,0.609,0.111,1.219,0.166,1.828
			c0.996,0.145,1.992,0.295,2.988,0.455c1.393,0.223,2.357,0.117,2.895-0.333c0.534-0.449,0.734-1.261,0.605-2.436
			C145.848,112.102,145.685,110.624,145.521,109.145z"/>
		<path fill="#610000" d="M41.162,136.139c2.102-0.692,4.213-1.35,6.328-1.979c0.083-3.502,0.175-6.965,0.273-10.391
			c0.1-3.422,0.252-6.951,0.454-10.585c-1.15,3.915-2.306,7.749-3.472,11.507C43.584,128.447,42.389,132.262,41.162,136.139z"/>
		<path fill="#610000" d="M213.014,164.736c-4.012-17.61-8.195-35.672-12.435-53.687c-0.554-2.356-2.276-4.32-4.727-5.389
			c-1.473-0.641-2.961-1.271-4.425-1.873c-1.451-0.595-3.045-0.833-4.642-0.695c-0.947-1.117-2.229-1.998-3.7-2.535
			c-2.013-0.733-4.075-1.452-6.131-2.134c-2.303-0.765-4.929-0.64-7.114,0.325c-0.245-0.071-0.485-0.142-0.716-0.209
			c-0.113-0.035-4.925-1.517-12.502-3.248c3.282-5.706,5.633-12.055,6.824-18.864c2.838-2.371,5.157-5.796,5.847-10.789
			c1.113-8.796-2.997-13.896-7.634-16.697c-6.672-21.153-25.232-37.504-48.691-40.222C81.129,5.03,52.326,27.852,48.635,59.693
			c-1.567,13.529,1.654,26.509,8.316,37.247c-0.283,0.201-0.555,0.414-0.811,0.645c-1.555-0.334-3.216-0.289-4.754,0.137
			c-1.719,0.471-3.405,0.959-5.016,1.443c-1.592,0.481-2.969,1.334-4.004,2.461c-1.687-0.821-3.629-1.25-5.702-1.25
			c-2.302,0-4.757,0.525-7.51,1.605c-5.601,2.211-12.814,7.117-15.368,17.938l-0.303,1.293c-0.532,2.281-1.062,4.561-1.592,6.842
			c-0.437,1.873-0.708,3.428-0.83,4.754c-0.256,2.743,0.549,5.322,2.28,7.387c-0.402,0.19-0.801,0.383-1.198,0.574
			c-2.286,1.104-3.893,3.027-4.407,5.275c-0.892,3.881-1.782,7.764-2.669,11.651c-1.354,5.931-0.143,10.341,3.596,13.11
			c2.002,1.496,4.529,2.288,7.305,2.287c2.682,0,5.559-0.734,9.056-2.311c4.722-2.123,7.602-4.388,9.816-7.681
			c1.294-1.922,1.901-3.305,2.768-5.198c7.462-2.479,39.618-11.953,74.073-11.953c1.799,0,3.604,0.025,5.365,0.077
			c5.92,0.175,38.195,2.021,59.811,11.671l0.28,1.449c0.505,2.61,2.462,4.796,5.228,5.842c1.502,0.566,1.089,0.68,2.648,1.309
			c0.588,0.24,1.204,0.413,1.834,0.533l6.104,2.587c0.543,0.435,1.148,0.811,1.809,1.116c1.763,0.822,3.512,1.664,5.194,2.503
			c1.331,0.665,2.845,1.015,4.377,1.015c1.798,0,3.53-0.469,5.008-1.358C212.271,170.93,213.713,167.806,213.014,164.736z
			 M26.48,161.663c-1.797,2.152-4.454,3.958-7.916,5.516c-3.361,1.516-5.607,1.907-6.754,1.049c-0.536-0.397-0.86-1.039-0.992-1.908
			c0.624,0.258,1.328,0.39,2.105,0.39c1.609-0.002,3.566-0.544,6.157-1.713c3.913-1.759,6.789-3.78,8.794-6.179
			c0.481-0.576,0.918-1.179,1.322-1.804C28.548,158.721,27.648,160.268,26.48,161.663z M32.281,111.731
			c-0.297-0.656-1.143-0.721-2.531-0.169c-2.377,0.946-3.852,2.771-4.448,5.409c-0.61,2.73-1.222,5.46-1.833,8.195
			c-0.26,1.166-0.369,1.983-0.327,2.451c0.043,0.468,0.248,0.906,0.62,1.313c1.02,1.104,2.138,1.994,3.351,2.675
			c1.212,0.684,2.411,1.567,3.605,2.648c0.41,0.369,0.73,0.776,0.952,1.217c0.222,0.445,0.365,0.958,0.43,1.545
			c0.062,0.586,0.047,1.282-0.045,2.088c-0.092,0.809-0.242,1.74-0.451,2.793c-0.511,2.593-1.023,5.186-1.537,7.781
			c-0.57,2.905-1.75,5.412-3.547,7.562c-1.799,2.15-4.455,3.957-7.918,5.514c-3.36,1.515-5.607,1.907-6.753,1.052
			c-1.147-0.851-1.366-2.785-0.677-5.799c0.91-3.991,1.824-7.979,2.739-11.96c1.728-0.834,3.461-1.645,5.204-2.43
			c-0.818,3.691-1.634,7.386-2.447,11.084c-0.319,1.445-0.299,2.488,0.072,3.127c0.369,0.641,1.298,0.615,2.788-0.049
			c1.438-0.642,2.545-1.432,3.311-2.389c0.767-0.955,1.286-2.097,1.562-3.43c0.537-2.602,1.078-5.199,1.617-7.795
			c0.176-0.843,0.294-1.521,0.357-2.033c0.062-0.512,0.062-0.938,0-1.277c-0.062-0.34-0.178-0.629-0.348-0.862
			c-0.172-0.233-0.383-0.48-0.633-0.741c-0.553-0.502-1.107-0.947-1.672-1.336c-0.566-0.389-1.15-0.763-1.752-1.13
			c-0.604-0.362-1.203-0.767-1.801-1.21c-0.596-0.44-1.199-0.969-1.807-1.58c-0.691-0.612-0.984-1.438-0.888-2.475
			c0.097-1.033,0.329-2.346,0.698-3.932c0.646-2.787,1.297-5.572,1.943-8.354c1.453-6.148,4.96-10.514,10.615-12.746
			c3.059-1.201,5.066-1.242,6.024-0.227c0.955,1.018,1.144,3.035,0.539,6.054c-0.658,3.28-1.315,6.563-1.972,9.849
			c-1.665,0.608-3.322,1.232-4.977,1.879c0.648-3.094,1.297-6.187,1.947-9.277C32.582,113.402,32.576,112.391,32.281,111.731z
			 M37.498,152.01c-1.519,0.527-3.034,1.071-4.545,1.632c0.252-0.755,0.496-1.503,0.746-2.259c1.345-0.497,2.724-0.992,4.113-1.476
			l0.398-0.139C37.973,150.518,37.738,151.262,37.498,152.01z M47.349,148.851c0.002-0.669,0.011-1.341,0.015-2.011l0.188-0.055
			c1.508-0.443,3.031-0.875,4.534-1.281c0.003,0.668,0.002,1.339,0.007,2.008C50.508,147.94,48.927,148.387,47.349,148.851z
			 M52.129,143.088c-1.584,0.429-3.164,0.876-4.744,1.341c0.011-2.269,0.029-4.536,0.053-6.809c-2.504,0.741-4.998,1.526-7.482,2.36
			c-0.799,2.527-1.607,5.064-2.42,7.605c-1.518,0.527-3.034,1.072-4.546,1.634c5.108-15.366,10.001-30.466,14.654-45.353
			c1.635-0.494,3.278-0.967,4.92-1.419C52.162,116.058,52.018,129.605,52.129,143.088z M150.945,89.296
			c-0.792,1.468-1.651,2.888-2.573,4.26c-1.122-0.216-2.275-0.43-3.458-0.64l-1.778-0.296c0-0.003,0-0.007,0.001-0.011
			c0.405-5.271-0.536-9.166-2.014-12.027c-2.244-4.346-5.712-6.31-7.551-7.083c-0.075-0.032-0.148-0.062-0.219-0.091
			c-0.008-0.003-0.016-0.006-0.023-0.009c0.449-0.247,1.201-0.637,2.168-1.044c0.03-0.013,0.058-0.023,0.087-0.036
			c0.128-0.053,0.258-0.105,0.392-0.159c5.439-2.251,10.093-2.1,13.633-1.183c0.295,0.077,0.582,0.159,0.862,0.245
			c0.861,0.265,1.645,0.571,2.351,0.89c0.645,0.292,1.222,0.593,1.728,0.884c1.08,0.624,1.835,1.196,2.218,1.511
			c0.194,0.159,0.298,0.255,0.298,0.255c-0.021,0.725-0.184,1.578-0.448,2.511c-0.292,1.029-0.71,2.156-1.204,3.323
			C154.149,83.579,152.389,86.811,150.945,89.296z M75.76,57.972c-2.677,3.126-5.113,6.362-7.242,9.565
			c-0.558,0.839-1.1,1.677-1.613,2.508c-0.912,1.411-1.77,2.855-2.587,4.315c0.57-4.974,1.656-9.423,3.275-13.485
			c1.503-3.774,3.492-7.274,6.008-10.574c0.159,0.25,0.308,0.519,0.448,0.798c0.048,0.097,0.091,0.2,0.139,0.3
			c0.089,0.193,0.176,0.389,0.256,0.594c0.046,0.114,0.088,0.231,0.132,0.349c0.077,0.212,0.15,0.429,0.221,0.652
			c0.034,0.111,0.069,0.223,0.103,0.336c0.075,0.26,0.145,0.529,0.212,0.803c0.015,0.059,0.031,0.112,0.045,0.171
			c-0.001,0.001-0.001,0.002-0.001,0.003C75.416,55.428,75.612,56.654,75.76,57.972z M78.498,48.303
			c-0.035-0.066-0.068-0.133-0.105-0.198c-0.165-0.296-0.342-0.582-0.528-0.86c-0.048-0.072-0.098-0.144-0.147-0.215
			c-0.198-0.285-0.403-0.564-0.624-0.83c2.669-2.806,5.79-5.477,9.397-8.059l3.665,6.311c-0.864,0.631-1.718,1.285-2.562,1.961
			c-2.562,2.054-5.025,4.304-7.357,6.677C79.825,51.328,79.266,49.722,78.498,48.303z M92.134,37.456L92.134,37.456l-1.285-2.214
			c3.214-1.942,6.634-3.393,10.146-4.451c1.602,1.849,3.927,3.514,6.761,5.162c-1.592,0.354-3.178,0.829-4.755,1.41
			c-2.88,1.062-5.723,2.481-8.496,4.175L92.134,37.456z M135.016,23.547c0.358-0.067,0.695-0.093,1.008-0.084l0,0
			c0.301,0.009,0.578,0.047,0.837,0.108c0.349,0.076,0.677,0.197,0.985,0.355c0.061,0.036,0.166,0.102,0.301,0.199
			c0.277,0.202,0.678,0.537,1.068,1.026c0.839,1.049,1.631,2.802,1.057,5.44c-0.033,0.156-0.072,0.314-0.115,0.476
			c0,0,0.135-0.162,0.321-0.431c0.286-0.411,0.701-1.082,0.987-1.88c0.153-0.43,0.27-0.894,0.308-1.372
			c0.005-0.079,0.003-0.16,0.004-0.24c2.526,1.45,3.394,3.365,3.541,5.113c0.178,2.102-0.678,3.954-0.934,4.454
			c-0.018-0.012-0.034-0.024-0.051-0.036c0.005-0.041,0.01-0.082,0.014-0.122c-0.018,0.031-0.034,0.064-0.053,0.094
			c-4.988-3.688-11.341-5.297-17.148-5.522c-0.301-0.017-0.599-0.029-0.896-0.039c-0.817-0.026-1.62-0.026-2.407-0.004
			c-0.003,0-0.007,0-0.011,0l0.011-0.007l0.013-0.008c0,0,0.416-0.902,1.214-1.857c0.201-0.241,0.429-0.485,0.679-0.72l0.001-0.001
			c1.032-0.969,2.472-1.764,4.281-1.419c0.159,0.03,0.321,0.073,0.486,0.121c0.105,0.031,0.211,0.063,0.318,0.102
			c0.257,0.104,0.521,0.225,0.79,0.366c0.78,0.409,1.605,0.98,2.451,1.771c0.001,0,0.002,0.001,0.003,0.002
			c0.011,0.011,0.023,0.023,0.036,0.035c0.126,0.12,0.255,0.243,0.382,0.373c0,0-0.058-0.136-0.164-0.355
			c-0.003-0.005-0.005-0.009-0.007-0.014c0,0,0,0,0,0c-0.301-0.612-1.004-1.867-2.089-2.89c-0.202-0.19-0.413-0.375-0.642-0.542
			c-0.154-0.113-0.314-0.22-0.479-0.318c-0.024-0.014-0.051-0.026-0.075-0.041c0.298-0.25,0.588-0.48,0.869-0.683
			c0.483-0.385,1.021-0.721,1.593-0.979C133.988,23.797,134.495,23.635,135.016,23.547z M133.473,54.033
			c-1.034,0.208-2.337,0.393-3.282,0.255c-0.155-0.022,1.8,3.401,5.797,1.482c0.281-0.135,0.572-0.295,0.873-0.486
			c0,0.001-0.146,0.346-0.452,0.794c-0.462,0.675-1.293,1.589-2.572,1.949c-6.047,1.597-7.303-5.29-7.288-5.332
			c1.812-0.026,3.856,0.188,5.497,0.417c1.798,0.251,3.113,0.52,3.11,0.516C135.155,53.627,134.428,53.841,133.473,54.033z
			 M131.421,74.972c3.578,3.959,6.475,3.725,7.809,10.445c0.314,4.252-4.7,5.239-5.056,1.064c0.744-5.665-2.408-6.557-2.26-8.672
			C131.814,77.649,131.412,75.234,131.421,74.972z M129.965,89.243c-1.577,1.185-4.063,1.233-6.511,0.183
			c-0.589-0.243-1.124-0.514-1.613-0.806c-0.803-0.48-1.474-1.022-2.028-1.614c-0.217-0.294-0.406-0.587-0.574-0.878
			c-0.725-1.263-1.012-2.503-0.987-3.69c0.078-3.795,3.314-7.047,5.417-8.765c0.571-0.466,1.059-0.82,1.376-1.04l0.032,0.082
			l0.275,0.706c-0.154,1.14-0.545,3.016-0.5,4.15c0.036,0.887,0.146,1.625,0.312,2.276c0.23,0.9,0.572,1.633,0.994,2.342
			c0.558,0.936,1.252,1.836,2.006,3.042c-0.346-1.495-1.14-3.284-1.354-5.031c-0.061-0.493-0.121-1.075-0.163-1.686
			c-0.097-1.439-0.063-3.048,0.475-4.107c1.578,0.736,1.843,1.294,1.966,2.111c0.097,0.643,0.105,1.448,0.597,2.628
			c0.729,1.752,1.51,3.116,1.825,5.053C131.904,86.622,131.226,88.296,129.965,89.243z M120.272,28.275
			c-0.233,0.417-0.423,0.839-0.559,1.263c-0.074,0.232-0.139,0.465-0.181,0.695c-0.074,0.404-0.091,0.799-0.064,1.183
			c-0.885,0.11-1.73,0.239-2.525,0.379c-1.65,0.292-3.087,0.628-4.231,0.931c-2.158-1.15-4.085-2.281-5.595-3.396
			c0.595-0.107,1.189-0.203,1.784-0.292c0.176-0.026,0.351-0.048,0.527-0.073c0.42-0.06,0.84-0.117,1.26-0.168
			c0.204-0.024,0.409-0.046,0.614-0.069c0.393-0.044,0.783-0.086,1.175-0.123c0.21-0.02,0.419-0.038,0.628-0.056
			c0.391-0.034,0.779-0.064,1.167-0.091c0.201-0.014,0.402-0.027,0.603-0.04c0.406-0.025,0.812-0.045,1.216-0.063
			c0.177-0.008,0.354-0.017,0.53-0.024c0.458-0.017,0.913-0.029,1.367-0.039c0.119-0.002,0.237-0.006,0.354-0.008
			c0.648-0.011,1.292-0.013,1.93-0.008C120.272,28.274,120.272,28.274,120.272,28.275z M94.685,90.421
			c0.764-10.8,2.187-16.703,4.676-20.917c-7.524,6.838-12.24,11.458-16.466,17.263c-1.092,1.499-2.151,3.073-3.218,4.79
			c-0.062,0.101,0.36-4.235,2.472-10.329c1.137-3.28,2.761-7.068,5.064-10.951c0.082-0.138-2.152,0.72-5.554,3.423
			c-1.474,1.17-3.166,2.69-4.985,4.623c-2.996,3.184-6.334,7.498-9.6,13.247c-0.273,0.483-0.548,0.973-0.821,1.476
			c-0.013,0.023-0.025,0.048-0.038,0.071c-0.215,0.396-0.429,0.803-0.642,1.213c-0.049,0.01-0.098,0.013-0.146,0.023
			c-0.021,0.004-0.044,0.009-0.065,0.014c0.08-0.604,0.312-1.864,0.728-3.576c1.288-5.306,4.35-14.931,10.188-22.688
			c1.496-1.989,3.176-3.854,5.056-5.492c0.505-0.441,1.023-0.868,1.559-1.274c-0.621,0.211-1.141,0.39-1.593,0.546
			c-2.639,0.912-2.642,0.958-2.644,0.942c0.021,0.037,0.908-0.989,2.545-2.619c2.079-2.067,5.368-5.108,9.643-8.197
			c0.396-0.286,0.799-0.572,1.211-0.859c0.464-0.327,0.939-0.654,1.423-0.979c1.402-0.942,2.886-1.873,4.435-2.766
			c3.878-2.238,8.157-4.248,12.534-5.65c1.89-0.605,3.797-1.094,5.697-1.441c2.153-0.395,4.299-0.607,6.4-0.587
			c-2.182-1.868-1.931-2.396-1.927-2.402c-0.001-0.009,0.017-0.019,0.046-0.027c0.002,0,0.003-0.001,0.005-0.001
			c0.029-0.008,0.074-0.016,0.131-0.022c0.005,0,0.01-0.001,0.017-0.002c0.055-0.007,0.125-0.013,0.204-0.018
			c0.012,0,0.021-0.001,0.033-0.002c0.08-0.005,0.173-0.009,0.273-0.013c0.017,0,0.033,0,0.051-0.001
			c0.103-0.003,0.216-0.005,0.337-0.007c0.021,0,0.042,0,0.063,0c0.125-0.001,0.258,0,0.401,0c0.023,0,0.047,0,0.071,0.001
			c0.146,0.002,0.301,0.004,0.464,0.008c0.024,0,0.051,0.001,0.076,0.002c0.168,0.005,0.343,0.01,0.526,0.018
			c0.023,0,0.046,0.001,0.069,0.002c0.19,0.008,0.388,0.017,0.595,0.028c0.017,0,0.034,0.002,0.052,0.003
			c0.216,0.011,0.437,0.024,0.666,0.04c0.007,0,0.015,0.001,0.022,0.001c0.725,0.049,1.518,0.118,2.357,0.21
			c0.004,0,0.007,0.001,0.012,0.001c0.273,0.03,0.553,0.064,0.835,0.099c0.013,0.001,0.024,0.003,0.036,0.005
			c0.107,0.013,0.216,0.027,0.322,0.042c0.175,0.023,0.351,0.047,0.527,0.073c0.015,0.002,0.03,0.004,0.044,0.006
			c0.286,0.041,0.574,0.085,0.865,0.131c0.017,0.003,0.032,0.005,0.049,0.008c0.29,0.046,0.584,0.097,0.878,0.15
			c0.017,0.003,0.032,0.006,0.05,0.009c0.296,0.054,0.594,0.11,0.893,0.17c0.013,0.003,0.026,0.006,0.04,0.008
			c0.303,0.061,0.604,0.125,0.908,0.194c0.008,0.001,0.017,0.003,0.025,0.006c0.309,0.069,0.617,0.143,0.924,0.22l0.002,0
			c1.873,0.47,3.711,1.084,5.329,1.881c0.003,0.001,0.008,0.003,0.012,0.005c0.263,0.13,0.52,0.265,0.771,0.404
			c0.01,0.005,0.018,0.009,0.026,0.014c0.247,0.138,0.487,0.282,0.721,0.43c0.009,0.006,0.02,0.013,0.03,0.02
			c0.231,0.147,0.455,0.3,0.671,0.458c0.011,0.008,0.021,0.016,0.031,0.023c0.215,0.158,0.422,0.321,0.62,0.49
			c0.008,0.007,0.018,0.016,0.025,0.023c0.199,0.17,0.389,0.345,0.568,0.526c0.006,0.006,0.012,0.013,0.018,0.019
			c0.182,0.184,0.354,0.373,0.513,0.567c0.001,0.001,0.002,0.002,0.002,0.002v0c0.243,0.296,0.462,0.605,0.652,0.929
			c0.455,0.767,0.823,1.464,1.015,2.087c0.406,1.324,0,2.308-2.135,2.888c-0.643,0.174-1.439,0.313-2.422,0.413
			c-2.183,0.231-4.411,0.021-6.497-0.319c-3.402-0.553-6.427-1.451-8.261-1.345c-0.435,0.014-0.956,0.066-1.532,0.153
			c-3.268,0.5-8.477,2.332-12.005,7.179c4.092-0.772,5.099-0.96,5.098-0.973c0.023-0.021,3.924,4.745,5.769,5.528
			c1.495,0.603,2.454,0.846,2.789,0.92c0.093,0.019,0.141,0.03,0.141,0.03c0.005,0.001-0.015,0.012-0.048,0.03
			c-0.469,0.294-4.339,2.799-8.002,7.357c-1.367,1.7-2.703,3.683-3.826,5.948c-0.963,1.948-1.764,4.104-2.289,6.459
			c-0.368,1.654-0.596,3.407-0.647,5.257c-0.005,0.157-0.005,0.315-0.007,0.474c-0.009,0.787,0.003,1.585,0.062,2.407
			c0,0-0.484-0.973-1.093-2.572c-0.459-1.209-0.987-2.776-1.433-4.564c-0.098-0.39-0.19-0.792-0.278-1.2
			c-0.451-2.112-0.755-4.458-0.688-6.836c0.006-0.225,0.02-0.451,0.032-0.677c-0.091,0.087-0.179,0.178-0.271,0.266
			c-0.797,0.767-1.57,1.561-2.317,2.381c-4.031,4.426-7.306,9.549-9.584,14.666C94.925,90.416,94.805,90.418,94.685,90.421z
			 M163.594,57.086c0.536,0.737,0.963,1.57,1.233,2.512c0.06,0.21,0.107,0.419,0.152,0.627c0.013,0.064,0.024,0.127,0.036,0.191
			c0.029,0.152,0.054,0.303,0.074,0.454c0.009,0.063,0.019,0.127,0.025,0.19c0.025,0.203,0.044,0.406,0.055,0.607
			c0.001,0.021,0,0.043,0.001,0.064c0.009,0.182,0.012,0.364,0.009,0.544c-0.001,0.068-0.004,0.135-0.006,0.203
			c-0.005,0.142-0.013,0.282-0.023,0.422c-0.005,0.065-0.01,0.13-0.016,0.195c-0.02,0.193-0.042,0.385-0.072,0.577
			c-0.006,0.037-0.014,0.072-0.02,0.109c-0.026,0.16-0.058,0.318-0.092,0.476c-0.015,0.069-0.031,0.137-0.047,0.206
			c-0.032,0.131-0.066,0.261-0.103,0.391c-0.018,0.065-0.035,0.131-0.055,0.196c-0.054,0.181-0.111,0.361-0.175,0.54
			c-0.018,0.049-0.037,0.098-0.055,0.146c-0.051,0.137-0.103,0.272-0.158,0.407c-0.01,0.027-0.02,0.056-0.031,0.083
			c-0.019,0.044-0.039,0.087-0.058,0.13c-0.051,0.116-0.103,0.231-0.156,0.346c-0.031,0.068-0.062,0.136-0.096,0.203
			c-0.079,0.166-0.164,0.331-0.251,0.494c-0.033,0.061-0.068,0.121-0.102,0.181c-0.062,0.111-0.125,0.223-0.19,0.333
			c-0.045,0.075-0.089,0.149-0.135,0.223c-0.06,0.097-0.122,0.194-0.184,0.29c-0.047,0.072-0.093,0.144-0.14,0.215
			c-0.1,0.148-0.201,0.295-0.305,0.439c-0.052,0.072-0.105,0.143-0.158,0.215c-0.063,0.084-0.126,0.17-0.19,0.253
			c-0.032,0.041-0.062,0.083-0.094,0.124c-0.006,0.02-0.009,0.04-0.015,0.059l-0.02-0.017c-0.004,0.003-0.007,0.007-0.01,0.011
			c0,0,0,0-0.001-0.001c-0.25-0.198-0.502-0.387-0.755-0.571c-1.418-1.026-2.902-1.83-4.42-2.443h-0.002
			c-0.264-0.107-0.529-0.209-0.796-0.305c-2.156-0.772-4.375-1.182-6.58-1.323c-1.271-0.083-2.538-0.074-3.786,0.003
			c-7.465,0.464-14.223,3.453-17.081,5.028c2.757-2.818,7.256-6.58,13.451-9.093c1.129-0.458,2.319-0.869,3.562-1.231
			c1.803-0.525,3.723-0.936,5.762-1.19c0.388-0.048,0.776-0.095,1.172-0.132c0.262,0.021,0.524,0.041,0.786,0.07
			c-1.089-0.372-1.989-0.675-2.736-0.923c-2.68-0.891-3.359-1.069-3.516-1.121c0,0-0.001,0-0.002,0
			c-0.015-0.005-0.024-0.009-0.03-0.012c-0.001,0-0.002,0-0.002,0c-0.006-0.004-0.009-0.006-0.008-0.009
			c0.475-0.433,0.954-0.861,1.435-1.291c0.394-0.352,0.789-0.702,1.187-1.051c0.455-0.402,0.912-0.805,1.375-1.203
			c-0.327-0.448-0.656-0.892-0.988-1.336c-0.005-0.028,0.436-0.034,1.167,0.027c0.969,0.081,2.446,0.28,4.079,0.699
			C158.354,53.053,161.683,54.459,163.594,57.086z M151.494,45.939c-0.971-2.429-2.297-4.503-3.875-6.268
			c0.55-0.69,0.965-1.546,1.243-2.559c1.813,2.815,3.356,5.805,4.598,8.929C152.649,45.934,151.973,45.906,151.494,45.939z
			 M104.416,19.793c0.035-0.046,0.071-0.091,0.106-0.136c0.098-0.124,0.2-0.244,0.306-0.362c0.035-0.039,0.07-0.078,0.105-0.116
			c0.291-0.31,0.612-0.599,0.955-0.87c0.03-0.023,0.061-0.046,0.091-0.07c0.157-0.122,0.318-0.239,0.483-0.354
			c0.019-0.013,0.036-0.025,0.055-0.038c0.385-0.264,0.786-0.506,1.197-0.73c0.008-0.004,0.015-0.008,0.022-0.012
			c0.205-0.112,0.41-0.219,0.618-0.321c0,0,0,0,0.001-0.001c0.835-0.412,1.677-0.749,2.439-1.015c2.597-0.9,4.805-1.213,4.98-1.233
			c5.803,1.158,11.181,3.271,16.01,6.129c0.001,0,0.002,0,0.003,0c0.028,0.017,0.056,0.035,0.084,0.052
			c0.075,0.044,0.148,0.09,0.224,0.134c-0.001,0-0.002,0.001-0.003,0.001c-1.173,0.555-2.207,1.306-3.049,2.113
			c-0.664-0.039-1.354,0.024-2.076,0.191c-0.117,0.028-0.232,0.066-0.351,0.1c-6.966-0.526-15.033-0.384-23.022,1.421
			c-0.419-1.684-0.268-3.124,0.479-4.38C104.179,20.124,104.295,19.957,104.416,19.793z M99.849,13.87
			c0.088-0.01,0.176-0.02,0.264-0.03c0.294-0.032,0.586-0.062,0.88-0.089c0.184-0.017,0.368-0.032,0.552-0.047
			c0.222-0.018,0.442-0.037,0.665-0.052c0.428-0.03,0.855-0.055,1.286-0.073c-1.538,1.07-2.919,2.393-3.899,4.035
			c-1.069,1.791-2.024,4.628-1.045,8.44c-3.546,1.144-7.021,2.685-10.326,4.667l-6.52-11.234
			C87.289,16.535,93.432,14.604,99.849,13.87z M74.984,23.729l-0.003-0.006c0.146-0.109,0.295-0.213,0.442-0.321
			c0.153-0.111,0.307-0.224,0.461-0.334c0.438-0.311,0.877-0.618,1.324-0.915l6.648,11.447c-4.22,2.983-7.837,6.089-10.906,9.376
			c-0.226-0.121-0.45-0.233-0.676-0.341c-0.065-0.031-0.131-0.06-0.194-0.09c-0.168-0.077-0.334-0.151-0.502-0.221
			c-0.066-0.028-0.134-0.056-0.2-0.083c-0.183-0.073-0.364-0.142-0.547-0.206c-0.046-0.016-0.092-0.034-0.139-0.05
			c-0.229-0.078-0.457-0.15-0.686-0.215c-2.13-0.603-4.276-0.623-6.416-0.041c-1.83,0.496-3.494,1.403-4.985,2.526
			C62.247,35.968,67.961,28.955,74.984,23.729z M56.943,81.277c-0.057-0.17-0.119-0.339-0.175-0.51
			c-2.375-7.294-3.153-15.204-1.979-23.23c1.394-2.958,5.337-9.459,10.177-10.768c0.598-0.161,1.197-0.234,1.802-0.229
			c0,0,0.003,0,0.005,0c0.206,0.002,0.414,0.015,0.621,0.036c0.033,0.003,0.067,0.008,0.102,0.012
			c0.174,0.021,0.35,0.047,0.524,0.082c0.051,0.009,0.103,0.019,0.154,0.03c0.162,0.036,0.323,0.078,0.486,0.124
			c0.055,0.016,0.111,0.03,0.168,0.048c0.212,0.066,0.424,0.14,0.638,0.226c-2.807,3.683-5.032,7.599-6.728,11.843
			c-3.013,7.555-4.351,16.223-4.087,26.749c-0.237-0.536-0.465-1.076-0.684-1.62c-0.072-0.178-0.136-0.359-0.205-0.537
			c-0.144-0.367-0.289-0.734-0.424-1.105C57.202,82.046,57.073,81.661,56.943,81.277z M58.873,145.691
			c-1.383,0.323-2.766,0.661-4.146,1.015c0.099-0.697,0.198-1.393,0.299-2.088c1.303-0.332,2.604-0.649,3.917-0.957l0.208-0.05
			C59.058,144.305,58.966,144.997,58.873,145.691z M73.473,142.937c-0.769,0.128-2.705,0.458-3.604,0.618l0.003,0.02
			c-0.406,0.074-0.815,0.147-1.223,0.225c-0.127-0.647-0.244-1.297-0.37-1.943l0.34-0.064c0.243-0.047,0.486-0.093,0.731-0.138
			l-0.001-0.007c0.718-0.129,3.317-0.588,4.037-0.709l0.285-0.049C73.605,141.574,73.539,142.254,73.473,142.937z M73.075,138.514
			c-1.611,0.271-3.218,0.558-4.823,0.861c-1.881-9.529-3.513-19.075-4.889-28.652c-0.388,3.172-0.782,6.259-1.182,9.26
			c-0.399,2.997-0.812,6.092-1.236,9.278c-0.533,3.999-1.065,8.001-1.6,12.006c-1.383,0.326-2.766,0.662-4.146,1.015
			c1.899-13.265,3.803-26.508,5.709-39.73c0.033-0.226,0.065-0.452,0.098-0.678c0.077-0.539,0.154-1.08,0.232-1.618
			c1.693-0.392,3.391-0.761,5.09-1.108c0.343,3.229,0.72,6.451,1.112,9.674c0.031,0.254,0.063,0.508,0.095,0.762
			c0.764,6.207,1.609,12.402,2.558,18.591c0.269-2.847,0.557-5.638,0.854-8.375c0.242-2.229,0.491-4.509,0.743-6.816
			c0.021-0.187,0.041-0.372,0.062-0.559c0.037-0.337,0.072-0.669,0.11-1.008c0.258-2.363,0.517-4.726,0.775-7.089
			c0.237-2.166,0.475-4.333,0.712-6.499c1.258-0.212,2.513-0.415,3.774-0.606c-0.321,3.271-0.643,6.549-0.962,9.822
			c-0.261,2.645-0.52,5.29-0.778,7.935c-0.017,0.168-0.033,0.336-0.05,0.504C74.58,123.159,73.826,130.832,73.075,138.514z
			 M90.155,140.727c-1.496,0.126-2.987,0.268-4.479,0.425c0.043-0.673,0.084-1.343,0.127-2.015c1.367-0.142,2.734-0.271,4.066-0.385
			l0.385-0.031C90.221,139.389,90.188,140.059,90.155,140.727z M100.451,140.127c-0.694,0.027-1.389,0.064-2.084,0.1v0.006
			c-0.438,0.022-1.773,0.076-2.212,0.103c-0.102-0.658-0.198-1.315-0.299-1.974c0.446-0.025,2.254-0.132,2.695-0.155l-0.002,0.019
			c0.507-0.023,1.012-0.047,1.505-0.064l0.812-0.031C100.728,138.795,100.593,139.461,100.451,140.127z M105.541,139.985
			c0.006-0.656,0.01-1.311,0.015-1.967c1.343-0.013,2.688-0.021,4.03-0.01l0.501,0.005c0.004,0.653,0.007,1.308,0.011,1.961
			C108.58,139.962,107.06,139.965,105.541,139.985z M106.07,135.563c0.027-3.718,0.054-7.434,0.081-11.15
			c0.003-0.391,0.005-0.779,0.009-1.17c0.016-2.34,0.041-4.631,0.07-6.892c0.008-0.638,0.015-1.284,0.024-1.915
			c0.018-1.271,0.038-2.561,0.06-3.857c0.027-1.632,0.058-3.279,0.092-4.951c-0.647,3.566-1.322,7.138-2.009,10.711
			c-0.41,2.129-0.824,4.26-1.249,6.393c-0.104,0.525-0.21,1.051-0.315,1.577c-0.761,3.795-1.538,7.593-2.344,11.397
			c-1.434,0.054-2.864,0.125-4.297,0.208c-0.658-4.253-1.282-8.503-1.883-12.752c-0.167-1.189-0.334-2.378-0.497-3.567
			c-0.523-3.814-1.023-7.629-1.5-11.441c-0.078-0.626-0.161-1.252-0.238-1.879c-0.021,0.515-0.04,1.017-0.06,1.527
			c-0.096,2.476-0.192,4.918-0.296,7.305c-0.07,1.598-0.145,3.221-0.222,4.859c-0.039,0.826-0.081,1.664-0.121,2.502
			c-0.024,0.492-0.046,0.976-0.071,1.472c-0.207,4.124-0.417,8.245-0.622,12.366c-1.493,0.126-2.986,0.268-4.478,0.425
			c0.324-5.185,0.648-10.363,0.972-15.546c0.007-0.094,0.013-0.189,0.019-0.283c0.162-2.598,0.324-5.195,0.487-7.793
			c0.038-0.624,0.078-1.248,0.116-1.873c0.008-0.111,0.016-0.225,0.021-0.336c0.175-2.794,0.35-5.588,0.523-8.381
			c0.141-2.244,0.281-4.49,0.422-6.735c1.928-0.185,3.856-0.341,5.784-0.472c0.64,5.729,1.331,11.457,2.067,17.187
			c0.389,3.02,0.793,6.039,1.209,9.06c0.104,0.76,0.211,1.521,0.316,2.28c0.143,1.016,0.279,2.03,0.424,3.046
			c0.193-0.974,0.377-1.945,0.568-2.918c0.144-0.738,0.288-1.477,0.43-2.215c0.395-2.035,0.781-4.069,1.163-6.102
			c1.302-6.938,2.543-13.861,3.705-20.774c1.99-0.042,3.979-0.055,5.968-0.04c0.01,1.627,0.019,3.254,0.027,4.879
			c0.031,5.473,0.061,10.943,0.092,16.415c0.015,2.711,0.029,5.422,0.045,8.132c0.021,3.765,0.042,7.529,0.062,11.293
			C109.109,135.54,107.59,135.543,106.07,135.563z M117.367,140.178c-1.58-0.069-3.161-0.121-4.745-0.158
			c0.107-0.646,0.204-1.294,0.312-1.941c1.291,0.033,2.578,0.076,3.835,0.133l0.87,0.038
			C117.548,138.893,117.461,139.538,117.367,140.178z M127.065,129.491c-2.573-0.219-5.151-0.391-7.73-0.518
			c-0.307,2.262-0.621,4.521-0.946,6.784c-1.58-0.071-3.162-0.124-4.747-0.159c0.654-3.973,1.277-7.943,1.884-11.912
			c0.437-2.854,0.867-5.709,1.279-8.562c0.717-4.973,1.385-9.942,2.027-14.91c0.219-1.705,0.448-3.41,0.66-5.113
			c0.024,0.002,0.05,0.002,0.074,0.004c1.659,0.085,3.319,0.188,4.978,0.313c0.831,4.222,1.693,8.452,2.571,12.687
			c0.223,1.072,0.449,2.145,0.674,3.217c0,0.001,0.001,0.001,0.001,0.001c0.576,2.741,1.16,5.486,1.757,8.233
			c1.254,5.784,2.543,11.579,3.888,17.395c-1.618-0.186-3.236-0.354-4.857-0.501C128.067,134.126,127.562,131.808,127.065,129.491z
			 M129.03,140.872c-0.143-0.65-0.281-1.299-0.423-1.949c1.479,0.139,2.989,0.293,4.513,0.467l0.329,0.038
			c0.148,0.647,0.289,1.295,0.439,1.943C132.268,141.186,130.653,141.02,129.03,140.872z M136.652,141.77
			c-0.049-0.633-0.098-1.266-0.146-1.897c1.398,0.185,2.787,0.382,4.126,0.586l0.692,0.105c0.057,0.631,0.114,1.259,0.171,1.889
			C139.884,142.206,138.271,141.979,136.652,141.77z M146.249,129.497c-0.903-3.173-1.854-6.388-2.856-9.646
			c-0.197,0.002-0.377-0.012-0.537-0.036c-0.16-0.027-0.343-0.058-0.545-0.088c-0.824-0.132-1.648-0.255-2.473-0.378
			c0.567,6.228,1.13,12.453,1.695,18.682c-1.611-0.246-3.227-0.474-4.843-0.684c-0.534-6.864-1.067-13.723-1.602-20.582
			c-0.238-3.072-0.478-6.146-0.718-9.217c-0.291-3.756-0.584-7.516-0.876-11.271c2.358,0.277,4.71,0.595,7.059,0.952
			c1.576,0.24,2.932,0.656,4.083,1.228c0.828,0.41,1.554,0.898,2.168,1.47c1.313,1.226,2.176,3.007,2.586,5.322
			c0.049,0.273,0.095,0.553,0.131,0.843c0.338,2.763,0.678,5.526,1.02,8.292c0.374,3.037-0.582,4.826-2.904,5.415
			c1.179,3.507,2.312,6.958,3.396,10.35c1.083,3.392,2.146,6.796,3.183,10.206c-1.747-0.373-3.496-0.725-5.251-1.057
			C148.055,135.934,147.151,132.667,146.249,129.497z M149.909,143.719c-0.174-0.646-0.348-1.286-0.523-1.924
			c1.575,0.3,3.175,0.62,4.77,0.962l0.411,0.088c0.197,0.644,0.399,1.287,0.595,1.933
			C153.413,144.403,151.664,144.049,149.909,143.719z M161.797,146.55c-0.086-0.608-0.174-1.217-0.262-1.825
			c1.284,0.33,2.565,0.666,3.814,1.012l0.865,0.236c0.092,0.607,0.187,1.212,0.28,1.818
			C164.932,147.36,163.364,146.946,161.797,146.55z M161.834,142.128c-1.812-12.712-3.627-25.405-5.447-38.079
			c-1.673-0.387-3.351-0.752-5.031-1.095c-0.06-0.012-0.118-0.024-0.177-0.036c-0.169-1.298-0.334-2.6-0.503-3.899
			c1.053,0.212,2.104,0.437,3.154,0.666c3.777,0.821,7.542,1.745,11.285,2.778c0.223,1.323,0.447,2.646,0.671,3.973
			c-1.72-0.479-3.443-0.934-5.169-1.369c1.977,12.745,3.948,25.511,5.915,38.301C164.971,142.937,163.402,142.524,161.834,142.128z
			 M175.332,150.429c-0.104-0.595-0.207-1.187-0.312-1.778c1.243,0.404,2.485,0.819,3.711,1.244l0.97,0.335
			c0.107,0.591,0.219,1.178,0.326,1.767C178.466,151.456,176.9,150.932,175.332,150.429z M175.368,146.004
			c-2.486-14.289-4.983-28.542-7.488-42.762c1.399,0.406,2.797,0.826,4.192,1.264c2.673,14.313,5.338,28.669,7.992,43.067
			C178.504,147.034,176.938,146.508,175.368,146.004z M185.916,160.492c-0.113-0.578-0.226-1.153-0.338-1.731
			c1.287,0.493,2.584,0.998,3.877,1.523l1.065,0.432c0.116,0.569,0.231,1.142,0.349,1.713
			C189.225,161.764,187.573,161.116,185.916,160.492z M201.334,166.975c-0.264-0.616-0.527-1.23-0.791-1.844
			c1.608,0.754,3.21,1.526,4.771,2.305l1.218,0.605c0.125,0.541,0.247,1.077,0.371,1.617
			C205.056,168.737,203.199,167.842,201.334,166.975z M201.371,162.553c-6.413-14.959-12.596-29.493-18.506-43.674
			c0.879,4.08,1.713,8.039,2.499,11.871c0.782,3.832,1.59,7.791,2.421,11.871c1.043,5.119,2.083,10.249,3.12,15.385
			c-1.645-0.666-3.296-1.312-4.952-1.938c-3.432-17.754-6.886-35.437-10.357-53.047c2.016,0.67,4.023,1.367,6.024,2.098
			c5.513,14.051,11.272,28.406,17.242,43.129c-0.886-3.789-1.73-7.483-2.538-11.089c-0.806-3.603-1.631-7.28-2.475-11.03
			c-1.338-5.956-2.682-11.899-4.028-17.834c1.456,0.6,2.911,1.215,4.358,1.845c4.294,18.251,8.549,36.615,12.76,55.096
			C205.094,164.317,203.236,163.42,201.371,162.553z"/>
		<path fill="#610000" d="M124.226,115.446c-0.157-0.795-0.312-1.596-0.464-2.4c-0.396-2.078-0.779-4.188-1.153-6.327
			c-0.11-0.636-0.222-1.272-0.331-1.915c-0.039,0.383-0.078,0.762-0.117,1.142c-0.277,2.708-0.571,5.362-0.883,7.964
			c-0.054,0.445-0.105,0.893-0.16,1.335c-0.305,2.476-0.628,4.981-0.96,7.501c-0.123,0.93-0.241,1.854-0.368,2.789
			c2.182,0.111,4.359,0.258,6.535,0.434c-0.324-1.6-0.642-3.186-0.958-4.768C124.98,119.27,124.599,117.349,124.226,115.446z"/>
	</g>
</g>
</svg>
